<?xml version="1.0" encoding="utf-8"?>
<!-- Generator: Adobe Illustrator 23.0.1, SVG Export Plug-In . SVG Version: 6.00 Build 0)  -->
<svg version="1.1" id="Layer_1" xmlns="http://www.w3.org/2000/svg" xmlns:xlink="http://www.w3.org/1999/xlink" x="0px" y="0px"
	 viewBox="0 0 512 512" style="enable-background:new 0 0 512 512;" xml:space="preserve">
<style type="text/css">
	.st0{fill:#FFFFFF;}
	.st1{fill:#649B33;}
	.st2{fill:none;stroke:#649B33;stroke-width:7;stroke-miterlimit:10;}
</style>
<g>
	<g id="XMLID_1_">
		<g>
			<path class="st0" d="M481.7,312.5v68.7c0,12.6-10.3,22.9-22.9,22.9H70.9c-12.6,0-22.9-10.3-22.9-22.9v-68.7
				c0-12.6,10.3-22.9,22.9-22.9h387.9C471.4,289.6,481.7,299.9,481.7,312.5z M437.1,346.8c0-6.9-5.6-12.6-12.6-12.6
				c-6.9,0-12.6,5.6-12.6,12.6c0,6.9,5.6,12.5,12.6,12.5C431.4,359.4,437.1,353.7,437.1,346.8z M394.7,346.8
				c0-6.9-5.6-12.6-12.6-12.6c-6.9,0-12.6,5.6-12.6,12.6c0,6.9,5.6,12.5,12.6,12.5C389.1,359.4,394.7,353.7,394.7,346.8z
				 M352.4,346.8c0-3.1-2.5-5.6-5.6-5.6h-58.6c-3.1,0-5.6,2.5-5.6,5.6c0,3.1,2.5,5.6,5.6,5.6h58.6
				C349.9,352.4,352.4,349.9,352.4,346.8z"/>
			<path class="st0" d="M481.7,175.2v68.7c0,12.6-10.3,22.9-22.9,22.9H70.9c-12.6,0-22.9-10.3-22.9-22.9v-68.7
				c0-12.6,10.3-22.9,22.9-22.9h387.9C471.4,152.3,481.7,162.6,481.7,175.2z M437.1,209.5c0-6.9-5.6-12.6-12.6-12.6
				c-6.9,0-12.6,5.6-12.6,12.6c0,6.9,5.6,12.6,12.6,12.6C431.4,222.1,437.1,216.4,437.1,209.5z M394.7,209.5
				c0-6.9-5.6-12.6-12.6-12.6c-6.9,0-12.6,5.6-12.6,12.6c0,6.9,5.6,12.6,12.6,12.6C389.1,222.1,394.7,216.4,394.7,209.5z
				 M352.4,209.5c0-3.1-2.5-5.6-5.6-5.6h-58.6c-3.1,0-5.6,2.5-5.6,5.6s2.5,5.6,5.6,5.6h58.6C349.9,215.1,352.4,212.6,352.4,209.5z"
				/>
			<path class="st0" d="M481.7,37.9v68.6c0,12.6-10.3,22.9-22.9,22.9H70.9c-12.6,0-22.9-10.3-22.9-22.9V37.9
				C48.1,25.3,58.4,15,70.9,15h387.9C471.4,15,481.7,25.3,481.7,37.9z M437.1,72.2c0-6.9-5.6-12.6-12.6-12.6
				c-6.9,0-12.6,5.6-12.6,12.6c0,6.9,5.6,12.5,12.6,12.5C431.4,84.8,437.1,79.1,437.1,72.2z M394.7,72.2c0-6.9-5.6-12.6-12.6-12.6
				c-6.9,0-12.6,5.6-12.6,12.6c0,6.9,5.6,12.5,12.6,12.5C389.1,84.8,394.7,79.1,394.7,72.2z M352.4,72.2c0-3.1-2.5-5.6-5.6-5.6
				h-58.6c-3.1,0-5.6,2.5-5.6,5.6c0,3.1,2.5,5.6,5.6,5.6h58.6C349.9,77.8,352.4,75.3,352.4,72.2z"/>
			<path class="st1" d="M424.5,59.6c6.9,0,12.6,5.6,12.6,12.6c0,6.9-5.6,12.5-12.6,12.5c-6.9,0-12.6-5.6-12.6-12.5
				C411.9,65.3,417.6,59.6,424.5,59.6z"/>
			<path class="st1" d="M424.5,196.9c6.9,0,12.6,5.6,12.6,12.6c0,6.9-5.6,12.6-12.6,12.6c-6.9,0-12.6-5.6-12.6-12.6
				C411.9,202.6,417.6,196.9,424.5,196.9z"/>
			<path class="st1" d="M424.5,334.2c6.9,0,12.6,5.6,12.6,12.6c0,6.9-5.6,12.5-12.6,12.5c-6.9,0-12.6-5.6-12.6-12.5
				C411.9,339.9,417.6,334.2,424.5,334.2z"/>
			<path class="st1" d="M430.8,473.8v9.1c0,3.8-3.1,6.9-6.9,6.9H323.2c-3.8,0-6.9-3.1-6.9-6.9v-9.1c0-3.8,3.1-6.9,6.9-6.9h100.7
				C427.7,466.9,430.8,470,430.8,473.8z"/>
			<path class="st1" d="M382.2,59.6c6.9,0,12.6,5.6,12.6,12.6c0,6.9-5.6,12.5-12.6,12.5c-6.9,0-12.6-5.6-12.6-12.5
				C369.6,65.3,375.2,59.6,382.2,59.6z"/>
			<path class="st1" d="M382.2,196.9c6.9,0,12.6,5.6,12.6,12.6c0,6.9-5.6,12.6-12.6,12.6c-6.9,0-12.6-5.6-12.6-12.6
				C369.6,202.6,375.2,196.9,382.2,196.9z"/>
			<path class="st1" d="M382.2,334.2c6.9,0,12.6,5.6,12.6,12.6c0,6.9-5.6,12.5-12.6,12.5c-6.9,0-12.6-5.6-12.6-12.5
				C369.6,339.9,375.2,334.2,382.2,334.2z"/>
			<path class="st1" d="M346.8,66.6c3.1,0,5.6,2.5,5.6,5.6c0,3.1-2.5,5.6-5.6,5.6h-58.6c-3.1,0-5.6-2.5-5.6-5.6
				c0-3.1,2.5-5.6,5.6-5.6H346.8z"/>
			<path class="st1" d="M346.8,203.9c3.1,0,5.6,2.5,5.6,5.6c0,3.1-2.5,5.6-5.6,5.6h-58.6c-3.1,0-5.6-2.5-5.6-5.6s2.5-5.6,5.6-5.6
				H346.8z"/>
			<path class="st1" d="M346.8,341.2c3.1,0,5.6,2.5,5.6,5.6c0,3.1-2.5,5.6-5.6,5.6h-58.6c-3.1,0-5.6-2.5-5.6-5.6
				c0-3.1,2.5-5.6,5.6-5.6H346.8z"/>
			<path class="st1" d="M293.5,456.6v43.5c0,1.8-0.7,3.5-2,4.9c-1.4,1.3-3.1,2-4.9,2h-43.5c-1.7,0-3.5-0.7-4.9-2
				c-1.3-1.3-2-3.1-2-4.9v-43.5c0-1.8,0.7-3.5,2-4.9c1.3-1.3,3.1-2,4.9-2h10.3v-16c0-1.7,0.7-3.5,2-4.9c1.3-1.3,3.1-2,4.9-2h9.1
				c1.8,0,3.5,0.7,4.9,2c1.3,1.4,2,3.1,2,4.9v16h10.3c1.8,0,3.5,0.7,4.9,2C292.8,453.1,293.5,454.9,293.5,456.6z"/>
			<path class="st1" d="M213.4,473.8v9.1c0,3.8-3.1,6.9-6.9,6.9H105.8c-3.8,0-6.9-3.1-6.9-6.9v-9.1c0-3.8,3.1-6.9,6.9-6.9h100.7
				C210.3,466.9,213.4,470,213.4,473.8z"/>
		</g>
		<g>
			<path class="st2" d="M458.8,15H70.9c-12.6,0-22.9,10.3-22.9,22.9v68.6c0,12.6,10.3,22.9,22.9,22.9h387.9
				c12.6,0,22.9-10.3,22.9-22.9V37.9C481.7,25.3,471.4,15,458.8,15z"/>
			<path class="st2" d="M346.8,77.8h-58.6c-3.1,0-5.6-2.5-5.6-5.6c0-3.1,2.5-5.6,5.6-5.6h58.6c3.1,0,5.6,2.5,5.6,5.6
				C352.4,75.3,349.9,77.8,346.8,77.8z"/>
			<path class="st2" d="M382.2,84.8c-6.9,0-12.6-5.6-12.6-12.5c0-6.9,5.6-12.6,12.6-12.6c6.9,0,12.6,5.6,12.6,12.6
				C394.7,79.1,389.1,84.8,382.2,84.8z"/>
			<path class="st2" d="M424.5,84.8c-6.9,0-12.6-5.6-12.6-12.5c0-6.9,5.6-12.6,12.6-12.6c6.9,0,12.6,5.6,12.6,12.6
				C437.1,79.1,431.4,84.8,424.5,84.8z"/>
			<path class="st2" d="M458.8,152.3H70.9c-12.6,0-22.9,10.3-22.9,22.9v68.7c0,12.6,10.3,22.9,22.9,22.9h387.9
				c12.6,0,22.9-10.3,22.9-22.9v-68.7C481.7,162.6,471.4,152.3,458.8,152.3z"/>
			<path class="st2" d="M346.8,215.1h-58.6c-3.1,0-5.6-2.5-5.6-5.6s2.5-5.6,5.6-5.6h58.6c3.1,0,5.6,2.5,5.6,5.6
				C352.4,212.6,349.9,215.1,346.8,215.1z"/>
			<path class="st2" d="M382.2,222.1c-6.9,0-12.6-5.6-12.6-12.6c0-6.9,5.6-12.6,12.6-12.6c6.9,0,12.6,5.6,12.6,12.6
				C394.7,216.4,389.1,222.1,382.2,222.1z"/>
			<path class="st2" d="M424.5,222.1c-6.9,0-12.6-5.6-12.6-12.6c0-6.9,5.6-12.6,12.6-12.6c6.9,0,12.6,5.6,12.6,12.6
				C437.1,216.4,431.4,222.1,424.5,222.1z"/>
			<path class="st2" d="M458.8,289.6H70.9c-12.6,0-22.9,10.3-22.9,22.9v68.7c0,12.6,10.3,22.9,22.9,22.9h387.9
				c12.6,0,22.9-10.3,22.9-22.9v-68.7C481.7,299.9,471.4,289.6,458.8,289.6z"/>
			<path class="st2" d="M346.8,352.4h-58.6c-3.1,0-5.6-2.5-5.6-5.6c0-3.1,2.5-5.6,5.6-5.6h58.6c3.1,0,5.6,2.5,5.6,5.6
				C352.4,349.9,349.9,352.4,346.8,352.4z"/>
			<path class="st2" d="M382.2,359.4c-6.9,0-12.6-5.6-12.6-12.5c0-6.9,5.6-12.6,12.6-12.6c6.9,0,12.6,5.6,12.6,12.6
				C394.7,353.7,389.1,359.4,382.2,359.4z"/>
			<path class="st2" d="M424.5,359.4c-6.9,0-12.6-5.6-12.6-12.5c0-6.9,5.6-12.6,12.6-12.6c6.9,0,12.6,5.6,12.6,12.6
				C437.1,353.7,431.4,359.4,424.5,359.4z"/>
			<path class="st2" d="M206.5,466.9H105.8c-3.8,0-6.9,3.1-6.9,6.9v9.1c0,3.8,3.1,6.9,6.9,6.9h100.7c3.8,0,6.9-3.1,6.9-6.9v-9.1
				C213.4,470,210.3,466.9,206.5,466.9z"/>
			<path class="st2" d="M423.9,466.9H323.2c-3.8,0-6.9,3.1-6.9,6.9v9.1c0,3.8,3.1,6.9,6.9,6.9h100.7c3.8,0,6.9-3.1,6.9-6.9v-9.1
				C430.8,470,427.7,466.9,423.9,466.9z"/>
			<path class="st2" d="M286.6,449.8h-10.3v-16c0-1.7-0.7-3.5-2-4.9c-1.3-1.3-3.1-2-4.9-2h-9.1c-1.8,0-3.5,0.7-4.9,2
				c-1.3,1.4-2,3.1-2,4.9v16h-10.3c-1.7,0-3.5,0.7-4.9,2c-1.3,1.3-2,3.1-2,4.9v43.5c0,1.8,0.7,3.5,2,4.9c1.3,1.3,3.1,2,4.9,2h43.5
				c1.8,0,3.5-0.7,4.9-2c1.3-1.3,2-3.1,2-4.9v-43.5c0-1.8-0.7-3.5-2-4.9C290.1,450.4,288.4,449.8,286.6,449.8z"/>
		</g>
	</g>
</g>
</svg>
