<?xml version="1.0" encoding="utf-8"?>
<!-- Generator: Adobe Illustrator 23.0.1, SVG Export Plug-In . SVG Version: 6.00 Build 0)  -->
<svg version="1.1" id="Icons" xmlns="http://www.w3.org/2000/svg" xmlns:xlink="http://www.w3.org/1999/xlink" x="0px" y="0px"
	 viewBox="0 0 32 32" style="enable-background:new 0 0 32 32;" xml:space="preserve">
<style type="text/css">
	.st0{fill:#E9E9E0;stroke:#649B33;stroke-miterlimit:10;}
	.st1{fill:#649B33;}
</style>
<path class="st0" d="M29.9,17.5C29.7,17.2,29.4,17,29,17c-2.2,0-4.3,1-5.6,2.8L22.5,21c-1.1,1.3-2.8,2-4.5,2h-3c-0.6,0-1-0.4-1-1
	s0.4-1,1-1h1.9c1.6,0,3.1-1.3,3.1-2.9V18c0-0.5-0.5-1-1-1h-6.1c-3.6,0-6.5,1.6-8.1,4.2l-2.7,4.2c-0.2,0.3-0.2,0.7,0,1l3,5
	c0.1,0.2,0.4,0.4,0.6,0.5c0.1,0,0.1,0,0.2,0c0.2,0,0.4-0.1,0.6-0.2c3.8-2.5,8.2-3.8,12.7-3.8c3.3,0,6.3-1.8,7.9-4.7l2.7-4.8
	C30,18.2,30,17.8,29.9,17.5z"/>
<path class="st1" d="M4.5,18c0.1,0,0.3,0,0.4,0c1.2-1.1,2.7-1.9,4.3-2.4C9.1,15.1,9,14.5,9,14c0-4.4,3.6-8,8-8s8,3.6,8,8
	c0,0.7-0.1,1.4-0.3,2.1C26,15.4,27.5,15,29,15c0.7,0,1.4,0.3,1.9,0.7C31,15.1,31,14.6,31,14c0-1.1-0.1-2.2-0.4-3.3
	c-0.1-0.5-0.6-0.8-1.1-0.8c-1.2,0.2-2.4-0.4-3-1.5c-0.6-1-0.5-2.4,0.2-3.3c0.3-0.4,0.3-1-0.1-1.3C25,2.3,23.1,1.2,21,0.6
	c-0.5-0.1-1,0.1-1.2,0.6C19.3,2.3,18.2,3,17,3s-2.3-0.7-2.8-1.8C14,0.7,13.5,0.4,13,0.6c-2.1,0.6-4,1.7-5.6,3.3C7,4.2,7,4.8,7.3,5.2
	c0.7,1,0.8,2.3,0.2,3.3s-1.8,1.6-3,1.5c-0.5-0.1-1,0.3-1.1,0.8C3.1,11.8,3,12.9,3,14s0.1,2.2,0.4,3.3C3.5,17.8,4,18.1,4.5,18z"/>
</svg>
