<?xml version="1.0" encoding="utf-8"?>
<!-- Generator: Adobe Illustrator 23.0.1, SVG Export Plug-In . SVG Version: 6.00 Build 0)  -->
<svg version="1.1"
	 id="svg4050" xmlns:cc="http://creativecommons.org/ns#" xmlns:dc="http://purl.org/dc/elements/1.1/" xmlns:inkscape="http://www.inkscape.org/namespaces/inkscape" xmlns:rdf="http://www.w3.org/1999/02/22-rdf-syntax-ns#" xmlns:sodipodi="http://sodipodi.sourceforge.net/DTD/sodipodi-0.dtd" xmlns:svg="http://www.w3.org/2000/svg"
	 xmlns="http://www.w3.org/2000/svg" xmlns:xlink="http://www.w3.org/1999/xlink" x="0px" y="0px" viewBox="0 0 32 32"
	 style="enable-background:new 0 0 32 32;" xml:space="preserve">
<style type="text/css">
	.st0{fill:#649B33;}
	.st1{fill:#FFFFFF;}
</style>
<g id="layer1" transform="translate(0,-1020.3622)">
	<g id="XMLID_1_">
		<g>
			<path class="st0" d="M30,1033.9v5c0,0.3-0.2,0.4-0.4,0.5l-3.2,0.5c-0.2,0.5-0.4,1-0.6,1.4l1.9,2.6c0.1,0.2,0.1,0.5,0,0.7
				l-3.5,3.5c-0.2,0.2-0.4,0.2-0.6,0l-2.6-1.9c-0.5,0.2-0.9,0.4-1.4,0.6l-0.5,3.1c0,0,0,0,0,0c0,0.3-0.3,0.5-0.6,0.4h-4.8
				c0,0,0,0,0,0c-0.3,0-0.5-0.2-0.6-0.4l0,0v0l-0.5-3.1c-0.5-0.2-1-0.4-1.4-0.6l-2.6,1.9c-0.2,0.2-0.5,0.1-0.7,0l-3.5-3.5
				c-0.2-0.2-0.2-0.4,0-0.7l1.9-2.6c-0.2-0.5-0.4-0.9-0.6-1.4l-3.2-0.5c-0.3,0-0.4-0.2-0.4-0.5v-5c0-0.3,0.2-0.5,0.4-0.5l3.2-0.5
				c0.2-0.5,0.4-1,0.6-1.4l-1.9-2.6c-0.1-0.2-0.1-0.5,0-0.7l3.5-3.5c0.2-0.2,0.4-0.2,0.7,0l2.6,1.9c0.5-0.2,0.9-0.4,1.4-0.6l0.5-3.2
				c0-0.2,0.2-0.4,0.5-0.4h5c0.3,0,0.5,0.2,0.5,0.4l0.5,3.2c0.5,0.2,1,0.4,1.5,0.6l2.6-1.9c0.2-0.2,0.5-0.1,0.6,0l3.5,3.5
				c0.2,0.2,0.2,0.4,0,0.7l-1.9,2.6c0.2,0.5,0.4,1,0.6,1.4l3.2,0.5C29.8,1033.4,30,1033.6,30,1033.9z M29,1038.4v-4.1l-3-0.5
				c-0.2,0-0.4-0.2-0.4-0.3c-0.2-0.7-0.4-1.3-0.8-1.9c-0.1-0.2-0.1-0.4,0-0.5l1.8-2.4l-2.9-2.9l-2.4,1.8c-0.2,0.1-0.4,0.1-0.5,0
				c-0.6-0.3-1.2-0.6-1.9-0.8c-0.2-0.1-0.3-0.2-0.4-0.4l-0.5-3h-4.1l-0.5,3c0,0.2-0.2,0.3-0.3,0.4c-0.7,0.2-1.3,0.5-1.9,0.8
				c-0.2,0.1-0.4,0.1-0.5,0l-2.4-1.8l-2.9,2.9l1.8,2.4c0.1,0.2,0.1,0.4,0,0.5c-0.3,0.6-0.6,1.2-0.8,1.9c-0.1,0.2-0.2,0.3-0.4,0.3
				l-3,0.5v4.1l3,0.4c0.2,0,0.3,0.2,0.4,0.4c0.2,0.6,0.5,1.3,0.8,1.9c0.1,0.2,0.1,0.4,0,0.5l-1.8,2.5l2.9,2.9l2.4-1.8
				c0.1-0.1,0.4-0.1,0.5,0c0.6,0.3,1.1,0.5,1.8,0.7v-4.3c-1.8-1-3-3-3-5.2c0-2.3,1.3-4.3,3.3-5.3c0.1,0,0.1-0.1,0.2-0.1c0,0,0,0,0,0
				c0.3,0,0.5,0.2,0.5,0.5v4.6l2,1.2l2-1.2v-4.6c0-0.1,0-0.2,0-0.2c0.1-0.2,0.4-0.3,0.7-0.2c2,1,3.3,3.1,3.3,5.3
				c0,2.2-1.2,4.2-3,5.2v4.3c0.6-0.2,1.2-0.4,1.7-0.7c0.2-0.1,0.4-0.1,0.5,0l2.4,1.8l2.9-2.9l-1.8-2.4c-0.1-0.2-0.1-0.4,0-0.5
				c0.3-0.6,0.6-1.2,0.8-1.9c0-0.2,0.2-0.3,0.4-0.3L29,1038.4z M16,1041.4c2.8,0,5-2.2,5-5c0-1.5-0.8-2.8-2-3.8v3.8
				c0,0.2-0.1,0.3-0.2,0.4l-2.5,1.5c-0.2,0.1-0.4,0.1-0.5,0l-2.5-1.5c-0.1-0.1-0.2-0.3-0.2-0.4v-3.8c-1.2,0.9-2,2.2-2,3.8
				C11,1039.1,13.2,1041.4,16,1041.4z M18,1049.4v-7.3c-0.6,0.2-1.3,0.3-2,0.3c-0.7,0-1.4-0.1-2-0.3v7.3H18z"/>
			<path class="st1" d="M29,1034.3v4.1l-3,0.4c-0.2,0-0.4,0.2-0.4,0.3c-0.2,0.7-0.5,1.3-0.8,1.9c-0.1,0.2-0.1,0.4,0,0.5l1.8,2.4
				l-2.9,2.9l-2.4-1.8c-0.2-0.1-0.4-0.1-0.5,0c-0.5,0.3-1.1,0.5-1.7,0.7v-4.3c1.8-1,3-3,3-5.2c0-2.3-1.3-4.3-3.3-5.3
				c-0.3-0.1-0.5,0-0.7,0.2c0,0.1,0,0.2,0,0.2v4.6l-2,1.2l-2-1.2v-4.6c0-0.3-0.2-0.5-0.5-0.5c0,0,0,0,0,0c-0.1,0-0.1,0-0.2,0.1
				c-2,1-3.3,3.1-3.3,5.3c0,2.2,1.2,4.2,3,5.2v4.3c-0.6-0.2-1.2-0.4-1.8-0.7c-0.2-0.1-0.4-0.1-0.5,0l-2.4,1.8l-2.9-2.9l1.8-2.5
				c0.1-0.2,0.1-0.4,0-0.5c-0.3-0.6-0.6-1.2-0.8-1.9c-0.1-0.2-0.2-0.3-0.4-0.4l-3-0.4v-4.1l3-0.5c0.2,0,0.3-0.2,0.4-0.3
				c0.2-0.7,0.5-1.3,0.8-1.9c0.1-0.2,0.1-0.4,0-0.5l-1.8-2.4l2.9-2.9l2.4,1.8c0.2,0.1,0.4,0.1,0.5,0c0.6-0.3,1.2-0.6,1.9-0.8
				c0.2-0.1,0.3-0.2,0.3-0.4l0.5-3h4.1l0.5,3c0,0.2,0.2,0.3,0.4,0.4c0.6,0.2,1.3,0.5,1.9,0.8c0.2,0.1,0.4,0.1,0.5,0l2.4-1.8l2.9,2.9
				l-1.8,2.4c-0.1,0.2-0.1,0.4,0,0.5c0.3,0.6,0.6,1.2,0.8,1.9c0.1,0.2,0.2,0.3,0.4,0.3L29,1034.3z"/>
			<path class="st1" d="M21,1036.4c0,2.8-2.2,5-5,5s-5-2.2-5-5c0-1.5,0.8-2.8,2-3.8v3.8c0,0.2,0.1,0.3,0.2,0.4l2.5,1.5
				c0.2,0.1,0.4,0.1,0.5,0l2.5-1.5c0.1-0.1,0.2-0.3,0.2-0.4v-3.8C20.2,1033.5,21,1034.8,21,1036.4z"/>
			<path class="st1" d="M18,1042v7.3h-4v-7.3c0.6,0.2,1.3,0.3,2,0.3C16.7,1042.4,17.4,1042.2,18,1042z"/>
		</g>
		<g>
		</g>
	</g>
</g>
</svg>
