<?xml version="1.0" encoding="utf-8"?>
<!-- Generator: Adobe Illustrator 23.0.1, SVG Export Plug-In . SVG Version: 6.00 Build 0)  -->
<svg version="1.1" id="Layer_1" xmlns="http://www.w3.org/2000/svg" xmlns:xlink="http://www.w3.org/1999/xlink" x="0px" y="0px"
	 viewBox="0 0 512 512" style="enable-background:new 0 0 512 512;" xml:space="preserve">
<style type="text/css">
	.st0{fill:#649B33;}
	.st1{fill:#FFFFFF;}
</style>
<g id="XMLID_529_">
	<g id="XMLID_1_">
		<g>
			<path class="st0" d="M471.7,124.8v367.9c0,7.3-6,13.3-13.3,13.3h-351c-7.3,0-13.3-6-13.3-13.3v-63.1h26.6v49.8h324.4V124.8
				l-76.6-59.7l-15.6-32.5H120.7v243.5H94.1V19.3c0-7.3,6-13.3,13.3-13.3h245.5L471.7,124.8z"/>
			<path class="st1" d="M445.1,124.8v354.6H120.7v-49.8v-9.8h195.9l49-133.9H120.7v-9.8V32.6h232.2V53l-12.5-9.7H130.6l222.3,65.6
				v16H445.1z M409.6,191v-19.6H156.2V191H409.6z M369.5,229.1v-19.6H156.2v19.6H369.5z"/>
			<polygon class="st0" points="445.1,124.8 352.9,124.8 352.9,108.8 395.5,121.3 368.5,65.1 			"/>
			<rect x="156.2" y="171.4" class="st0" width="253.4" height="19.6"/>
			<polygon class="st0" points="368.5,65.1 395.5,121.3 352.9,108.8 352.9,53 			"/>
			<rect x="156.2" y="209.5" class="st0" width="213.3" height="19.6"/>
			<polygon class="st0" points="368.5,65.1 352.9,53 352.9,32.6 			"/>
			<path class="st0" d="M365.6,285.9l-49,133.9H120.7V357h0.6v23.4h9.2h0.1v-54.9h-9.2v24.2h-0.7v-63.8H365.6z M295.7,380.4v-7.3
				h-25.8v-47.7h-9.2v55h34.9H295.7z M246.7,380.4v-54.9H235l-15.9,42.3h-0.2l-15.8-42.3H191v55h9.3v-40.2l0.2-0.1l15.4,40.3h6.3
				l15.1-39.6h0.2v39.5H246.7z M181.7,332.8v-7.4h-42.9v7.4h16.7v47.6h9.2v-47.6H181.7z"/>
			<polygon class="st1" points="352.9,53 352.9,108.8 130.6,43.2 340.4,43.2 			"/>
			<polygon class="st1" points="295.7,373.1 295.7,380.4 295.6,380.4 260.7,380.4 260.7,325.4 269.9,325.4 269.9,373.1 			"/>
			<polygon class="st1" points="246.7,325.5 246.7,380.4 237.5,380.4 237.5,340.9 237.3,340.9 222.2,380.5 215.9,380.5 200.5,340.2 
				200.3,340.3 200.3,380.5 191,380.5 191,325.5 203.1,325.5 218.9,367.8 219.1,367.8 235,325.5 			"/>
			<polygon class="st1" points="181.7,325.4 181.7,332.8 164.7,332.8 164.7,380.4 155.5,380.4 155.5,332.8 138.8,332.8 138.8,325.4 
							"/>
			<polygon class="st1" points="130.6,325.5 130.6,380.4 130.5,380.4 121.3,380.4 121.3,357 120.7,357 120.7,349.7 121.4,349.7 
				121.4,325.5 			"/>
			<polygon class="st0" points="120.7,357 120.7,419.8 40.3,419.8 40.3,285.9 120.7,285.9 120.7,349.7 96.8,349.7 96.8,325.5 
				87.6,325.5 87.6,380.5 96.8,380.5 96.8,357 			"/>
			<polygon class="st1" points="120.7,349.7 120.7,357 96.8,357 96.8,380.5 87.6,380.5 87.6,325.5 96.8,325.5 96.8,349.7 			"/>
		</g>
		<g>
		</g>
	</g>
</g>
</svg>
