<?xml version="1.0" encoding="utf-8"?>
<!-- Generator: Adobe Illustrator 26.0.2, SVG Export Plug-In . SVG Version: 6.00 Build 0)  -->
<svg version="1.1" id="Layer_1" xmlns="http://www.w3.org/2000/svg" xmlns:xlink="http://www.w3.org/1999/xlink" x="0px" y="0px"
	 viewBox="0 0 32 22" style="enable-background:new 0 0 32 22;" xml:space="preserve">
<style type="text/css">
	.st0{fill:#649B33;}
	.st1{fill:#649B33;stroke:#FFFFFF;stroke-width:0.25;stroke-miterlimit:10;}
</style>
<path class="st0" d="M29,19V1.4C29,0.6,28.3,0,27.5,0c0,0,0,0,0,0h-23C3.7,0,3,0.6,3,1.4c0,0,0,0,0,0V19H0v0.4C0,20.8,1.1,22,2.5,22
	h27c1.4,0,2.5-1.2,2.5-2.6V19H29z M4,1.4C4,1.2,4.2,1,4.5,1c0,0,0,0,0,0h23C27.8,1,28,1.2,28,1.4c0,0,0,0,0,0V19H4V1.4z M2.5,21
	c-0.6,0-1.2-0.4-1.4-1H14v1H2.5z M29.5,21H18v-1h12.9C30.7,20.6,30.1,21,29.5,21z"/>
<path class="st1" d="M5,18h22V2H5V18z M6,3h20v14H6V3z"/>
<g>
	<path class="st0" d="M18.6,10.2c0.3-0.3,0.3-0.7,0-1l-5.7-5.7c-0.3-0.3-0.7-0.3-1,0l-0.7,0.7L11.1,4c-0.2-0.2-0.4-0.2-0.6,0
		c-0.2,0.2-0.2,0.4,0,0.6l0.1,0.1L10,5.3c-0.3,0.3-0.3,0.7,0,1l5.7,5.7c0.1,0.1,0.3,0.2,0.5,0.2c0.2,0,0.4-0.1,0.5-0.2l0.6-0.6
		l0.2,0.2l-1.7,1.7l-3.4-3.4l-1.3,1.3l-0.3-0.3c-0.2-0.2-0.5-0.3-0.8-0.3c-0.3,0-0.6,0.1-0.8,0.3C9.1,11.1,9,11.4,9,11.7l-2.4,2.4
		c-0.2,0.2-0.2,0.4-0.2,0.6c0,0.2,0.1,0.4,0.2,0.6l1.2,1.2c0.2,0.2,0.4,0.2,0.6,0.2c0.2,0,0.4-0.1,0.6-0.2l2.4-2.4
		c0.1,0,0.1,0,0.2,0c0.3,0,0.6-0.1,0.8-0.3c0.4-0.4,0.4-1.1,0-1.5l-0.6-0.6l0.7-0.7l3.4,3.4l2.8-2.8l-0.7-0.7L18.6,10.2z M11.9,13.4
		c-0.1,0.1-0.2,0.2-0.4,0.2c-0.1,0-0.1,0-0.2,0l-0.2,0l-2.6,2.6c-0.1,0.1-0.3,0.1-0.4,0L7,14.9C7,14.8,7,14.7,7,14.7
		c0-0.1,0-0.1,0.1-0.2l2.6-2.6l0-0.2c-0.1-0.2,0-0.4,0.1-0.6c0.1-0.1,0.2-0.2,0.4-0.2s0.3,0.1,0.4,0.2l1.5,1.5
		C12.1,12.9,12.1,13.2,11.9,13.4z M16.4,11.7c-0.1,0.1-0.2,0.1-0.2,0l-5.7-5.7c-0.1-0.1-0.1-0.2,0-0.2l1.8-1.8c0,0,0.1,0,0.1,0
		c0,0,0.1,0,0.1,0l0.2,0.2c-0.2,0.6-0.3,1.4,0,1.7c0.6,0.5,1.6,0.5,1.6,0.5s0.2,1,0.6,1.5c0.4,0.5,1.6,0.5,1.6,0.5S15.7,9.4,16,9.8
		c0.3,0.4,1.6-0.3,1.6-0.3l0.4-0.2l0.3,0.3c0.1,0.1,0.1,0.2,0,0.2L16.4,11.7z"/>
</g>
</svg>
