<?xml version="1.0" encoding="utf-8"?>
<!-- Generator: Adobe Illustrator 23.0.1, SVG Export Plug-In . SVG Version: 6.00 Build 0)  -->
<svg version="1.1" id="Слой_1" xmlns="http://www.w3.org/2000/svg" xmlns:xlink="http://www.w3.org/1999/xlink" x="0px" y="0px"
	 viewBox="0 0 64 64" style="enable-background:new 0 0 64 64;" xml:space="preserve">
<style type="text/css">
	.st0{fill:#FFFFFF;}
</style>
<g id="_x31_-Call">
	<g>
		<path class="st0" d="M51.3,43.6L44.8,39c-0.8-0.6-1.8-0.9-2.9-0.9c-1.6,0-3.2,0.8-4.1,2.1l-1.5,2.2c-2.5-1.7-5.3-4.1-8-6.7
			c-2.7-2.7-5-5.5-6.7-8l2.2-1.5c2.3-1.6,2.8-4.7,1.2-7l-4.5-6.5c-0.9-1.4-2.5-2.2-4.1-2.2c-0.6,0-1.1,0.1-1.6,0.3
			c-0.6,0.2-1.1,0.5-1.7,0.8l-0.9,0.6c-0.2,0.2-0.4,0.4-0.6,0.6C10.4,14,9.6,15.4,9.2,17C7.3,24,12,34.6,20.7,43.3
			c7.3,7.3,16.2,11.9,23,11.9c0,0,0,0,0,0c1.2,0,2.3-0.1,3.3-0.4c1.6-0.4,3-1.2,4.1-2.3c0.2-0.2,0.4-0.4,0.6-0.7l0.6-0.9
			c0.3-0.5,0.6-1,0.8-1.6C53.9,47.2,53.1,44.9,51.3,43.6z"/>
		<path class="st0" d="M47.9,16.1c-4.3-4.3-10-6.9-16.1-7.3c-0.5,0-1,0.4-1.1,0.9c0,0.6,0.4,1,0.9,1.1c5.6,0.3,10.9,2.7,14.8,6.7
			c4,4,6.3,9.2,6.7,14.8c0,0.5,0.5,0.9,1,0.9c0,0,0,0,0.1,0c0.6,0,1-0.5,0.9-1.1C54.8,26.1,52.2,20.4,47.9,16.1z"/>
		<path class="st0" d="M31.3,16.8c4.1,0.3,8,2,11,4.9c2.9,2.9,4.7,6.8,4.9,11c0,0.5,0.5,0.9,1,0.9c0,0,0,0,0.1,0
			c0.6,0,1-0.5,0.9-1.1c-0.3-4.6-2.3-9-5.5-12.2c-3.3-3.3-7.6-5.2-12.2-5.5c-0.6,0-1,0.4-1.1,0.9C30.3,16.3,30.8,16.8,31.3,16.8z"/>
		<path class="st0" d="M30.9,22.8c2.7,0.2,5.2,1.3,7.1,3.2c1.9,1.9,3,4.4,3.2,7.1c0,0.5,0.5,0.9,1,0.9c0,0,0,0,0.1,0
			c0.6,0,1-0.5,0.9-1.1c-0.2-3.2-1.5-6.1-3.8-8.4c-2.2-2.2-5.2-3.6-8.4-3.8c-0.6,0-1,0.4-1.1,0.9C30,22.3,30.4,22.7,30.9,22.8z"/>
	</g>
</g>
<g id="_x32_-24_Hours_Call">
</g>
<g id="_x33_-Sending_Call">
</g>
<g id="_x34_-Incoming_Call">
</g>
<g id="_x35_-Talk_On_Phone">
</g>
<g id="_x36_-Block_Call">
</g>
<g id="_x37_-Hold_Call">
</g>
<g id="_x38_-Mute_Call">
</g>
<g id="_x39_-Phone_Book">
</g>
<g id="_x31_0-Add_Contact">
</g>
<g id="_x31_1-Delete_Contact">
</g>
<g id="_x31_2-Mail">
</g>
<g id="_x31_3-Message_Read">
</g>
<g id="_x31_4-Email">
</g>
<g id="_x31_5-Send_Mail">
</g>
<g id="_x31_6-Important_Mail">
</g>
<g id="_x31_7-Mail_Chain">
</g>
<g id="_x31_8-Messaging">
</g>
<g id="_x31_9-Sending">
</g>
<g id="_x32_0-Chat">
</g>
<g id="_x32_1-Mail_Attachment">
</g>
<g id="_x32_2-Mobile_Link">
</g>
<g id="_x32_3-Smartphone">
</g>
<g id="_x32_4-Social_Media">
</g>
<g id="_x32_5-Support">
</g>
<g id="_x32_6-Links">
</g>
<g id="_x32_7-Phone">
</g>
<g id="_x32_8-Phone-2">
</g>
<g id="_x32_9-Map">
</g>
<g id="_x33_0-Location">
</g>
<g id="_x33_1-Write">
</g>
<g id="_x33_2-World">
</g>
<g id="_x33_3-Home">
</g>
<g id="_x33_4-Calendar">
</g>
<g id="_x33_5-Website">
</g>
<g id="_x33_6-Info">
</g>
<g id="_x33_7-Bull_Horn">
</g>
<g id="_x33_8-Profile">
</g>
<g id="_x33_9-Quote__x26__Answer">
</g>
<g id="_x34_0-Notification">
</g>
<g id="_x34_1-Share">
</g>
<g id="_x34_2-Time">
</g>
</svg>
