<?xml version="1.0" encoding="utf-8"?>
<!-- Generator: Adobe Illustrator 23.0.1, SVG Export Plug-In . SVG Version: 6.00 Build 0)  -->
<svg version="1.1" id="Layer_1" xmlns="http://www.w3.org/2000/svg" xmlns:xlink="http://www.w3.org/1999/xlink" x="0px" y="0px"
	 viewBox="0 0 512 512" style="enable-background:new 0 0 512 512;" xml:space="preserve">
<style type="text/css">
	.st0{fill:#FFFFFF;}
	.st1{fill:#649B33;}
</style>
<g id="XMLID_1003_">
	<polygon class="st0" points="144,44 445.1,124.8 445.1,479.4 120.7,479.4 120.7,32.6 352.9,32.6 352.9,118 353,164 	"/>
	<g id="XMLID_1_">
		<g>
			<path class="st1" d="M352.9,124.8V32.6H127h-6.3v243.5H94.1V19.3c0-7.3,6-13.3,13.3-13.3h245.5l118.8,118.8v367.9
				c0,7.3-6,13.3-13.3,13.3h-351c-7.3,0-13.3-6-13.3-13.3v-63.1h26.6v49.8h324.4V124.8H352.9z"/>
			<path class="st0" d="M282.4,378.6h0.1c-1.9,2.6-4.9,5-8.9,7.1c-4.1,2.1-9.4,3.1-15.9,3.1c-8,0-14.6-2.6-19.8-7.8
				c-5.2-5.2-7.8-11.9-7.8-20.1v-14.2c0-8.2,2.5-14.9,7.5-20.1c5-5.2,11.5-7.8,19.3-7.8c7.9,0,14.1,2,18.5,6s6.6,9.2,6.4,15.6
				l-0.1,0.3H271c0-3.8-1.2-6.9-3.6-9.3s-5.8-3.5-10.3-3.5c-4.7,0-8.5,1.8-11.4,5.3c-2.9,3.5-4.3,8-4.3,13.4v14.3
				c0,5.5,1.5,10,4.5,13.5s6.9,5.3,11.8,5.3c3.6,0,6.5-0.4,8.6-1.2c2.1-0.8,3.7-1.8,4.8-3v-14.1h-14.3v-8.5h25.6V378.6z"/>
			<polygon class="st0" points="214.9,319.8 214.9,387.8 203.5,387.8 173.4,338.8 173.1,338.9 173.1,387.8 161.7,387.8 161.7,319.8 
				173.1,319.8 203.2,368.8 203.5,368.7 203.5,319.8 			"/>
			<path class="st0" d="M141.7,325.6c4.3,3.9,6.4,9,6.4,15.3c0,6.4-2.1,11.5-6.4,15.3c-4.3,3.8-10.1,5.8-17.6,5.8h-14.7v25.8H98v-68
				h26.1C131.6,319.8,137.5,321.7,141.7,325.6z M136.8,340.9c0-3.5-1.1-6.3-3.2-8.6c-2.2-2.3-5.3-3.4-9.5-3.4h-14.7v24h14.7
				c4.2,0,7.4-1.1,9.5-3.4C135.7,347.3,136.8,344.4,136.8,340.9z"/>
			<rect x="156.2" y="171.4" class="st1" width="253.4" height="19.6"/>
			<rect x="156.2" y="209.5" class="st1" width="213.3" height="19.6"/>
			<path class="st1" d="M365.6,285.9l-49,133.9H40.3V285.9H365.6z M282.5,378.6h-0.1v-25.7h-25.6v8.5h14.3v14.1
				c-1.1,1.2-2.7,2.2-4.8,3c-2.1,0.8-5,1.2-8.6,1.2c-4.9,0-8.8-1.8-11.8-5.3s-4.5-8-4.5-13.5v-14.3c0-5.4,1.4-9.9,4.3-13.4
				c2.9-3.5,6.7-5.3,11.4-5.3c4.5,0,7.9,1.1,10.3,3.5s3.6,5.5,3.6,9.3h10.7l0.1-0.3c0.2-6.4-2-11.6-6.4-15.6s-10.6-6-18.5-6
				c-7.8,0-14.3,2.6-19.3,7.8c-5,5.2-7.5,11.9-7.5,20.1v14.2c0,8.2,2.6,14.9,7.8,20.1c5.2,5.2,11.8,7.8,19.8,7.8
				c6.5,0,11.8-1,15.9-3.1C277.6,383.6,280.6,381.2,282.5,378.6z M214.9,387.8v-68h-11.4v48.9l-0.3,0.1l-30.1-49h-11.4v68h11.4
				v-48.9l0.3-0.1l30.1,49H214.9z M148.1,340.9c0-6.3-2.1-11.4-6.4-15.3c-4.2-3.9-10.1-5.8-17.6-5.8H98v68h11.4V362h14.7
				c7.5,0,13.3-2,17.6-5.8C146,352.4,148.1,347.3,148.1,340.9z"/>
			<path class="st1" d="M133.6,332.3c2.1,2.3,3.2,5.1,3.2,8.6s-1.1,6.4-3.2,8.6c-2.1,2.3-5.3,3.4-9.5,3.4h-14.7v-24h14.7
				C128.3,328.9,131.4,330,133.6,332.3z"/>
		</g>
		<g>
		</g>
	</g>
</g>
</svg>
