<?xml version="1.0" encoding="utf-8"?>
<!-- Generator: Adobe Illustrator 23.0.1, SVG Export Plug-In . SVG Version: 6.00 Build 0)  -->
<svg version="1.1" id="Capa_1" xmlns="http://www.w3.org/2000/svg" xmlns:xlink="http://www.w3.org/1999/xlink" x="0px" y="0px"
	 viewBox="0 0 80 80" style="enable-background:new 0 0 80 80;" xml:space="preserve">
<style type="text/css">
	.st0{fill:#FFFFFF;}
	.st1{fill:#649B33;}
	.st2{fill:none;stroke:#649B33;stroke-miterlimit:10;}
	.st3{fill:none;stroke:#649B33;stroke-width:3;stroke-miterlimit:10;}
</style>
<g>
	<g id="XMLID_1_">
		<g>
			<path class="st0" d="M79.4,0.6c0.8,0.8,0.8,2,0,2.8l-7.8,7.8l-7.1,7.1c-0.8,0.8-2,0.8-2.8,0c-0.8-0.8-0.8-2,0-2.8l7.1-7.1
				l7.8-7.8C77.4-0.2,78.7-0.2,79.4,0.6z"/>
			<path class="st0" d="M75.8,15.3c1.9,1.9,1.9,21.8,0,23.7L36.3,78.6c-1.9,1.9-5,1.9-7,0L1.4,50.7c-1.9-1.9-1.9-5,0-7L41,4.2
				c1.9-1.9,21.8-1.9,23.7,0L67.5,7L64,10.4c-2.3-0.5-4.8,0.2-6.6,2c-2.8,2.8-2.8,7.4,0,10.2c2.8,2.8,7.4,2.8,10.2,0
				c1.8-1.8,2.4-4.3,2-6.6l3.5-3.5L75.8,15.3z M55.8,34.4c0.4-1,0.6-2.1,0.6-3.2c0-1.1-0.3-2.1-0.9-3.1c-0.5-1-1.2-2-2.2-3
				c-1.3-1.3-2.6-2.1-4-2.6c-1.4-0.5-2.8-0.5-4.2-0.1c-1.4,0.4-2.8,1.2-4,2.5c-0.9,0.9-1.6,1.9-2,2.9c-0.4,1-0.6,2.1-0.6,3.1
				c0,1.1,0.3,2.1,0.8,3.2c0.5,1,1.2,2,2.2,3c0.9,0.9,1.9,1.6,2.9,2.2c1,0.5,2.1,0.8,3.1,0.9c1.1,0,2.1-0.1,3.2-0.6
				c1.1-0.4,2.1-1.1,3-2.1C54.7,36.5,55.4,35.5,55.8,34.4z M45.6,44.6c0-0.4-0.1-0.7-0.4-1c-0.3-0.3-0.6-0.4-1-0.4
				c-0.4,0-0.8,0.2-1.1,0.6l-5.7,5.7L33.8,46l5.1-5.1c0.4-0.4,0.6-0.8,0.6-1.1c0-0.4-0.1-0.7-0.4-1c-0.3-0.3-0.6-0.4-1-0.4
				c-0.3,0-0.7,0.2-1.1,0.6L32,44.2l-3-3l5.6-5.5c0.4-0.4,0.6-0.8,0.6-1.1c0-0.4-0.1-0.7-0.4-1c-0.3-0.3-0.6-0.4-1-0.4
				c-0.4,0-0.8,0.2-1.1,0.6l-6.5,6.5c-0.3,0.3-0.6,0.7-0.7,1c-0.1,0.3-0.1,0.7,0,1c0.1,0.3,0.4,0.7,0.7,1l9.1,9.1
				c0.5,0.5,1,0.8,1.5,0.8c0.5,0,1-0.3,1.5-0.8l6.7-6.7C45.4,45.3,45.6,45,45.6,44.6z M32.2,58c0.4-1.1,0.5-2.1,0.3-3
				c-0.2-1-0.7-1.8-1.4-2.5c-0.6-0.6-1.2-1-1.9-1.2c-0.6-0.2-1.3-0.3-2-0.1c-0.7,0.1-1.4,0.4-2.1,0.7c-0.7,0.4-1.5,0.8-2.4,1.3
				c-0.7,0.4-1.2,0.7-1.5,0.9c-0.3,0.2-0.6,0.3-1,0.4c-0.4,0.1-0.7,0.1-1,0.1c-0.3,0-0.6-0.2-0.8-0.4c-0.4-0.4-0.5-0.9-0.4-1.6
				c0.1-0.7,0.5-1.3,1.1-2c0.7-0.7,1.3-1,1.9-1.1c0.6-0.1,1.2,0,1.9,0.3c0.5,0.1,0.9,0.2,1.2,0.2c0.3,0,0.6-0.2,0.9-0.4
				c0.3-0.3,0.5-0.7,0.4-1.1c0-0.4-0.2-0.8-0.5-1.1c-0.3-0.3-0.7-0.6-1.2-0.7c-0.5-0.2-1.1-0.2-1.8-0.2c-0.7,0.1-1.4,0.3-2.1,0.6
				c-0.7,0.4-1.5,0.9-2.2,1.7c-0.9,0.9-1.6,1.9-2,2.8c-0.4,1-0.5,1.9-0.4,2.8c0.2,0.9,0.6,1.7,1.2,2.3c0.7,0.7,1.5,1.1,2.3,1.2
				c0.8,0.1,1.6,0,2.5-0.3C22,57.1,23,56.6,24,56c0.8-0.5,1.5-0.9,2-1.1c0.5-0.3,1-0.4,1.5-0.4c0.5,0,0.9,0.2,1.3,0.6
				c0.5,0.5,0.7,1.2,0.6,1.9c-0.1,0.8-0.5,1.6-1.3,2.3c-0.5,0.5-1,0.9-1.5,1c-0.5,0.2-1,0.2-1.4,0.1c-0.4-0.1-0.9-0.2-1.5-0.5
				c-0.4-0.2-0.8-0.3-1.2-0.3c-0.3,0-0.6,0.1-0.9,0.4c-0.3,0.3-0.5,0.7-0.5,1.1c0,0.4,0.2,0.8,0.5,1.1c0.5,0.5,1.2,0.9,2.1,1.1
				c0.9,0.2,1.8,0.2,2.6,0c1.2-0.3,2.4-1.1,3.6-2.3C31.1,60,31.8,59,32.2,58z"/>
			<path class="st1" d="M56.4,31.3c0.1,1.1-0.1,2.1-0.6,3.2c-0.4,1-1.1,2-2.1,3c-1,1-2,1.7-3,2.1c-1.1,0.5-2.1,0.6-3.2,0.6
				c-1.1-0.1-2.1-0.3-3.1-0.9c-1-0.5-2-1.3-2.9-2.2c-0.9-0.9-1.7-1.9-2.2-3c-0.5-1-0.8-2.1-0.8-3.2c0-1.1,0.2-2.1,0.6-3.1
				c0.4-1,1.1-2,2-2.9c1.3-1.3,2.6-2.1,4-2.5c1.4-0.4,2.8-0.4,4.2,0.1c1.4,0.5,2.8,1.4,4,2.6c0.9,0.9,1.7,1.9,2.2,3
				C56,29.1,56.3,30.2,56.4,31.3z M53,33.3c0.2-0.8,0.1-1.7-0.2-2.7c-0.3-1-1-1.9-2-2.9c-0.9-0.9-1.8-1.5-2.7-1.9
				c-0.9-0.4-1.8-0.5-2.7-0.3c-0.9,0.2-1.6,0.6-2.3,1.3c-0.5,0.5-0.8,1-1.1,1.6c-0.2,0.6-0.3,1.2-0.3,1.9c0.1,0.7,0.3,1.3,0.7,2.1
				c0.4,0.7,0.9,1.4,1.6,2.1c0.7,0.7,1.4,1.2,2.1,1.6c0.7,0.4,1.4,0.6,2.1,0.7c0.7,0,1.3,0,1.9-0.3c0.6-0.2,1.1-0.6,1.6-1.1
				C52.4,34.8,52.8,34.1,53,33.3z"/>
			<path class="st0" d="M52.8,30.5c0.3,1,0.4,1.9,0.2,2.7s-0.6,1.6-1.3,2.2c-0.5,0.5-1,0.8-1.6,1.1c-0.6,0.2-1.2,0.3-1.9,0.3
				c-0.7,0-1.4-0.3-2.1-0.7c-0.7-0.4-1.4-0.9-2.1-1.6c-0.7-0.7-1.2-1.4-1.6-2.1c-0.4-0.7-0.6-1.4-0.7-2.1c0-0.7,0-1.3,0.3-1.9
				c0.2-0.6,0.6-1.1,1.1-1.6c0.7-0.7,1.5-1.1,2.3-1.3c0.9-0.2,1.8-0.1,2.7,0.3c0.9,0.4,1.9,1,2.7,1.9C51.8,28.6,52.5,29.6,52.8,30.5
				z"/>
			<path class="st1" d="M45.2,43.6c0.3,0.3,0.4,0.6,0.4,1c0,0.4-0.2,0.8-0.6,1.1l-6.7,6.7c-0.5,0.5-1,0.8-1.5,0.8
				c-0.5,0-1-0.3-1.5-0.8l-9.1-9.1c-0.3-0.3-0.6-0.7-0.7-1c-0.1-0.3-0.1-0.7,0-1c0.1-0.3,0.4-0.7,0.7-1l6.5-6.5
				c0.4-0.4,0.8-0.6,1.1-0.6c0.4,0,0.7,0.1,1,0.4c0.3,0.3,0.4,0.6,0.4,1c0,0.4-0.2,0.8-0.6,1.1L29,41.2l3,3l5.1-5.1
				c0.4-0.4,0.7-0.6,1.1-0.6c0.4,0,0.7,0.1,1,0.4c0.3,0.3,0.4,0.6,0.4,1c0,0.3-0.2,0.7-0.6,1.1L33.8,46l3.5,3.5l5.7-5.7
				c0.4-0.4,0.8-0.6,1.1-0.6C44.5,43.2,44.9,43.3,45.2,43.6z"/>
			<path class="st1" d="M32.5,54.9c0.2,1,0.1,2-0.3,3C31.8,59,31.1,60,30.1,61c-1.2,1.2-2.4,2-3.6,2.3c-0.9,0.2-1.8,0.2-2.6,0
				c-0.9-0.2-1.6-0.5-2.1-1.1c-0.3-0.3-0.5-0.7-0.5-1.1c0-0.4,0.2-0.8,0.5-1.1c0.3-0.3,0.6-0.4,0.9-0.4c0.4,0,0.8,0.1,1.2,0.3
				c0.5,0.2,1,0.4,1.5,0.5c0.4,0.1,0.9,0,1.4-0.1c0.5-0.2,1-0.5,1.5-1c0.7-0.7,1.2-1.5,1.3-2.3c0.1-0.8-0.1-1.4-0.6-1.9
				c-0.4-0.4-0.9-0.6-1.3-0.6c-0.5,0-1,0.1-1.5,0.4c-0.5,0.3-1.2,0.6-2,1.1c-1.1,0.7-2,1.2-2.9,1.5c-0.9,0.3-1.7,0.4-2.5,0.3
				c-0.8-0.1-1.6-0.5-2.3-1.2c-0.7-0.7-1.1-1.5-1.2-2.3c-0.1-0.9,0-1.8,0.4-2.8c0.4-1,1.1-1.9,2-2.8c0.8-0.8,1.5-1.3,2.2-1.7
				c0.7-0.4,1.4-0.6,2.1-0.6c0.7-0.1,1.3,0,1.8,0.2c0.5,0.2,0.9,0.4,1.2,0.7c0.3,0.3,0.4,0.7,0.5,1.1c0,0.4-0.1,0.8-0.4,1.1
				c-0.3,0.3-0.6,0.4-0.9,0.4c-0.3,0-0.7-0.1-1.2-0.2c-0.7-0.2-1.3-0.3-1.9-0.3c-0.6,0-1.2,0.4-1.9,1.1c-0.6,0.6-1,1.3-1.1,2
				c-0.1,0.7,0,1.2,0.4,1.6c0.2,0.2,0.5,0.4,0.8,0.4c0.3,0,0.6,0,1-0.1c0.4-0.1,0.7-0.2,1-0.4c0.3-0.2,0.8-0.5,1.5-0.9
				c0.9-0.5,1.6-1,2.4-1.3c0.8-0.4,1.5-0.6,2.1-0.7c0.7-0.1,1.3-0.1,2,0.1c0.6,0.2,1.3,0.6,1.9,1.2C31.8,53.1,32.3,54,32.5,54.9z"/>
		</g>
		<g>
			<path class="st2" d="M68.9,8.4l-7.1,7.1c-0.8,0.8-0.8,2,0,2.8c0.8,0.8,2,0.8,2.8,0l7.1-7.1l7.8-7.8c0.8-0.8,0.8-2,0-2.8
				c-0.8-0.8-2-0.8-2.8,0L68.9,8.4z"/>
			<path class="st3" d="M67.5,7l-2.8-2.8c-1.9-1.9-21.8-1.9-23.7,0L1.4,43.7c-1.9,1.9-1.9,5,0,7l27.9,27.8c1.9,1.9,5,1.9,7,0
				L75.8,39c1.9-1.9,1.9-21.8,0-23.7L73,12.5L69.6,16c0.5,2.3-0.2,4.8-2,6.6c-2.8,2.8-7.4,2.8-10.2,0c-2.8-2.8-2.8-7.4,0-10.2
				c1.8-1.8,4.3-2.4,6.6-2L67.5,7z"/>
		</g>
	</g>
</g>
</svg>
