<?xml version="1.0" encoding="utf-8"?>
<!-- Generator: Adobe Illustrator 23.0.1, SVG Export Plug-In . SVG Version: 6.00 Build 0)  -->
<svg version="1.1" id="Слой_1" xmlns="http://www.w3.org/2000/svg" xmlns:xlink="http://www.w3.org/1999/xlink" x="0px" y="0px"
	 viewBox="0 0 560 288" style="enable-background:new 0 0 560 288;" xml:space="preserve">
<style type="text/css">
	.st0{fill:url(#SVGID_1_);}
	.st1{fill:url(#SVGID_2_);}
	.st2{fill:url(#SVGID_3_);}
	.st3{fill:url(#SVGID_4_);}
	.st4{fill:url(#SVGID_5_);}
	.st5{fill:url(#SVGID_6_);}
	.st6{fill:url(#SVGID_7_);}
	.st7{fill:url(#SVGID_8_);}
	.st8{fill:url(#SVGID_9_);}
	.st9{fill:url(#SVGID_10_);}
	.st10{fill:url(#SVGID_11_);}
	.st11{fill:url(#SVGID_12_);}
	.st12{fill:url(#SVGID_13_);}
	.st13{fill:url(#SVGID_14_);}
	.st14{fill:url(#SVGID_15_);}
	.st15{fill:url(#SVGID_16_);}
	.st16{fill:url(#SVGID_17_);}
	.st17{fill:url(#SVGID_18_);}
	.st18{fill:url(#SVGID_19_);}
	.st19{fill:url(#SVGID_20_);}
</style>
<g>
	<g>
		<linearGradient id="SVGID_1_" gradientUnits="userSpaceOnUse" x1="5.7623" y1="137.1962" x2="272.5298" y2="150.8067">
			<stop  offset="6.337585e-03" style="stop-color:#000000"/>
			<stop  offset="0.9888" style="stop-color:#004811"/>
		</linearGradient>
		<path class="st0" d="M40.3,159c1.6,8.5,7.6,12.1,16.9,12.1c8.7,0,12.7-3,12.7-8.7c0-6.4-4.3-8.9-19.8-12.6
			c-28.9-7-34.6-17.5-34.6-30.7c0-16.4,12.1-30.2,39.3-30.2c28.3,0,39.9,14.4,41.2,29.8H68.2c-0.8-5.3-3.4-10.6-13.6-10.6
			c-6.6,0-10.6,2.5-10.6,7.8c0,5.3,3.6,7.4,18.7,11.1c30.2,7.5,36.1,18.4,36.1,32.3c0,18.4-14.2,31.1-42.9,31.1
			c-27.1,0-41.4-12.6-43.6-31.5H40.3z"/>
		<linearGradient id="SVGID_2_" gradientUnits="userSpaceOnUse" x1="5.407" y1="144.1608" x2="272.1744" y2="157.7714">
			<stop  offset="6.337585e-03" style="stop-color:#000000"/>
			<stop  offset="0.9888" style="stop-color:#004811"/>
		</linearGradient>
		<path class="st1" d="M136.6,156.9c0,7.5,2.9,15,11,15c6.6,0,8.5-2.8,9.8-6.7h27.2c-2.7,9.9-11.2,25.2-37.5,25.2
			c-28.1,0-38.5-18.9-38.5-38.4c0-22.4,11.9-39.7,39-39.7c28.9,0,37.7,19.5,37.7,38.1c0,2.5,0,4.4-0.3,6.4H136.6z M157.6,142.4
			c-0.1-7-2.1-12.8-10-12.8c-7.4,0-10.2,5.5-10.7,12.8H157.6z"/>
		<linearGradient id="SVGID_3_" gradientUnits="userSpaceOnUse" x1="6.0727" y1="131.1117" x2="272.8402" y2="144.7223">
			<stop  offset="6.337585e-03" style="stop-color:#000000"/>
			<stop  offset="0.9888" style="stop-color:#004811"/>
		</linearGradient>
		<path class="st2" d="M191.3,114.2h10.7V94.9h27.4v19.3h13.1v18.7h-13.1v32c0,4.6,1.5,6.4,7.3,6.4c1,0,2.4,0,3.9-0.1v17.1
			c-4.3,1.4-11.5,1.7-16.1,1.7c-17.6,0-22.5-8.6-22.5-22.7v-34.3h-10.6V114.2z"/>
		<linearGradient id="SVGID_4_" gradientUnits="userSpaceOnUse" x1="5.7742" y1="136.9629" x2="272.5417" y2="150.5735">
			<stop  offset="6.337585e-03" style="stop-color:#000000"/>
			<stop  offset="0.9888" style="stop-color:#004811"/>
		</linearGradient>
		<path class="st3" d="M328.6,151.3c0,23.2-14.5,39.1-40.1,39.1c-26.4,0-39.5-17.3-39.5-38.9c0-22.5,13.7-39.2,40.4-39.2
			C313.9,112.4,328.6,128.8,328.6,151.3z M277.3,151.5c0,14.2,4.2,20.4,11.6,20.4c7.3,0,11.3-6.3,11.3-20.2
			c0-15.4-3.9-20.6-11.4-20.6C281.9,131.1,277.3,136,277.3,151.5z"/>
		<linearGradient id="SVGID_5_" gradientUnits="userSpaceOnUse" x1="6.02" y1="132.1447" x2="272.7875" y2="145.7552">
			<stop  offset="6.337585e-03" style="stop-color:#000000"/>
			<stop  offset="0.9888" style="stop-color:#004811"/>
		</linearGradient>
		<path class="st4" d="M341,133.5c0-6.4-0.1-13.4-0.2-19.3h27c0.4,1.9,0.7,6,0.9,8.2c2.9-4.3,9-10,21.2-10
			c14.9,0,24.3,10.1,24.3,28.3v48h-27.7v-44.8c0-7.2-2.1-11.2-8.4-11.2c-5.8,0-9.4,3.1-9.4,13.5v42.5H341V133.5z"/>
		<linearGradient id="SVGID_6_" gradientUnits="userSpaceOnUse" x1="6.8998" y1="114.9012" x2="273.6673" y2="128.5118">
			<stop  offset="6.337585e-03" style="stop-color:#000000"/>
			<stop  offset="0.9888" style="stop-color:#004811"/>
		</linearGradient>
		<path class="st5" d="M429.8,85.7h27.7V105h-27.7V85.7z M429.8,114.2h27.7v74.5h-27.7V114.2z"/>
		<linearGradient id="SVGID_7_" gradientUnits="userSpaceOnUse" x1="6.3394" y1="125.8845" x2="273.1069" y2="139.4951">
			<stop  offset="6.337585e-03" style="stop-color:#000000"/>
			<stop  offset="0.9888" style="stop-color:#004811"/>
		</linearGradient>
		<path class="st6" d="M497.4,114.2c5,10.5,7.7,17.9,9.5,21.9h0.4c2.1-5.2,5.3-14,9.1-21.9h29.9l-22.8,35.4l22.8,39h-30.6
			c-4.7-10.6-7.6-18.3-9.3-23H506c-1.4,3-5.3,13.2-9.5,23h-29.6l21.8-36.7l-21.8-37.8H497.4z"/>
	</g>
	<g>
		<linearGradient id="SVGID_8_" gradientUnits="userSpaceOnUse" x1="267.5145" y1="95.2558" x2="328.9134" y2="101.6074">
			<stop  offset="6.337585e-03" style="stop-color:#000000"/>
			<stop  offset="0.9888" style="stop-color:#004811"/>
		</linearGradient>
		<path class="st7" d="M284.9,88.2v13.9c0,1,0,2.2,0.1,3h-1.9l-0.1-2H283c-0.6,1.3-2,2.3-3.9,2.3c-2.8,0-4.9-2.3-4.9-5.8
			c0-3.8,2.3-6.2,5.1-6.2c1.8,0,2.9,0.8,3.5,1.8h0v-6.8H284.9z M282.9,98.2c0-0.3,0-0.6-0.1-0.9c-0.3-1.3-1.4-2.4-3-2.4
			c-2.2,0-3.4,1.9-3.4,4.4c0,2.3,1.1,4.2,3.4,4.2c1.4,0,2.7-0.9,3.1-2.5c0.1-0.3,0.1-0.6,0.1-0.9V98.2z"/>
		<linearGradient id="SVGID_9_" gradientUnits="userSpaceOnUse" x1="267.56" y1="94.8162" x2="328.9589" y2="101.1678">
			<stop  offset="6.337585e-03" style="stop-color:#000000"/>
			<stop  offset="0.9888" style="stop-color:#004811"/>
		</linearGradient>
		<path class="st8" d="M290.7,90.3c0,0.7-0.5,1.3-1.3,1.3c-0.7,0-1.3-0.6-1.3-1.3c0-0.7,0.5-1.3,1.3-1.3
			C290.2,89,290.7,89.6,290.7,90.3z M288.4,105V93.6h2.1V105H288.4z"/>
		<linearGradient id="SVGID_10_" gradientUnits="userSpaceOnUse" x1="267.1988" y1="98.3074" x2="328.5977" y2="104.659">
			<stop  offset="6.337585e-03" style="stop-color:#000000"/>
			<stop  offset="0.9888" style="stop-color:#004811"/>
		</linearGradient>
		<path class="st9" d="M303.8,93.6c0,0.8-0.1,1.8-0.1,3.1v6.7c0,2.6-0.5,4.2-1.6,5.2c-1.1,1-2.7,1.4-4.2,1.4c-1.4,0-2.9-0.3-3.8-0.9
			l0.5-1.6c0.8,0.5,1.9,0.9,3.4,0.9c2.1,0,3.7-1.1,3.7-4v-1.3h-0.1c-0.6,1.1-1.9,1.9-3.6,1.9c-2.8,0-4.9-2.4-4.9-5.6
			c0-3.9,2.5-6.1,5.2-6.1c2,0,3.1,1,3.6,2h0l0.1-1.7H303.8z M301.7,98.1c0-0.4,0-0.7-0.1-0.9c-0.4-1.2-1.4-2.2-2.9-2.2
			c-2,0-3.4,1.7-3.4,4.3c0,2.3,1.1,4.1,3.4,4.1c1.3,0,2.4-0.8,2.9-2.1c0.1-0.4,0.2-0.8,0.2-1.1V98.1z"/>
		<linearGradient id="SVGID_11_" gradientUnits="userSpaceOnUse" x1="267.7574" y1="92.9075" x2="329.1563" y2="99.2591">
			<stop  offset="6.337585e-03" style="stop-color:#000000"/>
			<stop  offset="0.9888" style="stop-color:#004811"/>
		</linearGradient>
		<path class="st10" d="M309.4,90.3c0,0.7-0.5,1.3-1.3,1.3c-0.7,0-1.3-0.6-1.3-1.3c0-0.7,0.5-1.3,1.3-1.3
			C308.9,89,309.4,89.6,309.4,90.3z M307.1,105V93.6h2.1V105H307.1z"/>
		<linearGradient id="SVGID_12_" gradientUnits="userSpaceOnUse" x1="267.7658" y1="92.8271" x2="329.1646" y2="99.1787">
			<stop  offset="6.337585e-03" style="stop-color:#000000"/>
			<stop  offset="0.9888" style="stop-color:#004811"/>
		</linearGradient>
		<path class="st11" d="M315.1,90.3v3.3h3v1.6h-3v6.2c0,1.4,0.4,2.2,1.6,2.2c0.5,0,0.9-0.1,1.2-0.1l0.1,1.6c-0.4,0.2-1,0.3-1.8,0.3
			c-1,0-1.8-0.3-2.3-0.9c-0.6-0.6-0.8-1.6-0.8-3v-6.3h-1.8v-1.6h1.8v-2.7L315.1,90.3z"/>
		<linearGradient id="SVGID_13_" gradientUnits="userSpaceOnUse" x1="267.6957" y1="93.5043" x2="329.0946" y2="99.8559">
			<stop  offset="6.337585e-03" style="stop-color:#000000"/>
			<stop  offset="0.9888" style="stop-color:#004811"/>
		</linearGradient>
		<path class="st12" d="M326.8,105l-0.2-1.4h-0.1c-0.6,0.9-1.9,1.7-3.5,1.7c-2.3,0-3.5-1.6-3.5-3.3c0-2.8,2.5-4.3,6.9-4.3v-0.2
			c0-0.9-0.3-2.6-2.6-2.6c-1.1,0-2.2,0.3-3,0.9l-0.5-1.4c0.9-0.6,2.3-1,3.8-1c3.5,0,4.4,2.4,4.4,4.7v4.3c0,1,0,2,0.2,2.7H326.8z
			 M326.5,99.2c-2.3,0-4.9,0.4-4.9,2.6c0,1.3,0.9,2,2,2c1.5,0,2.4-0.9,2.8-1.9c0.1-0.2,0.1-0.4,0.1-0.7V99.2z"/>
		<linearGradient id="SVGID_14_" gradientUnits="userSpaceOnUse" x1="268.0678" y1="89.9076" x2="329.4666" y2="96.2592">
			<stop  offset="6.337585e-03" style="stop-color:#000000"/>
			<stop  offset="0.9888" style="stop-color:#004811"/>
		</linearGradient>
		<path class="st13" d="M331.9,88.2h2.1V105h-2.1V88.2z"/>
		<linearGradient id="SVGID_15_" gradientUnits="userSpaceOnUse" x1="267.929" y1="91.2492" x2="329.3279" y2="97.6008">
			<stop  offset="6.337585e-03" style="stop-color:#000000"/>
			<stop  offset="0.9888" style="stop-color:#004811"/>
		</linearGradient>
		<path class="st14" d="M348.8,105l-0.2-1.4h-0.1c-0.6,0.9-1.9,1.7-3.5,1.7c-2.3,0-3.5-1.6-3.5-3.3c0-2.8,2.5-4.3,6.9-4.3v-0.2
			c0-0.9-0.3-2.6-2.6-2.6c-1.1,0-2.2,0.3-3,0.9l-0.5-1.4c0.9-0.6,2.3-1,3.8-1c3.5,0,4.4,2.4,4.4,4.7v4.3c0,1,0,2,0.2,2.7H348.8z
			 M348.5,99.2c-2.3,0-4.9,0.4-4.9,2.6c0,1.3,0.9,2,2,2c1.5,0,2.4-0.9,2.8-1.9c0.1-0.2,0.1-0.4,0.1-0.7V99.2z"/>
		<linearGradient id="SVGID_16_" gradientUnits="userSpaceOnUse" x1="267.8335" y1="92.1727" x2="329.2323" y2="98.5243">
			<stop  offset="6.337585e-03" style="stop-color:#000000"/>
			<stop  offset="0.9888" style="stop-color:#004811"/>
		</linearGradient>
		<path class="st15" d="M363.8,93.6c0,0.8-0.1,1.8-0.1,3.1v6.7c0,2.6-0.5,4.2-1.6,5.2c-1.1,1-2.7,1.4-4.2,1.4
			c-1.4,0-2.9-0.3-3.8-0.9l0.5-1.6c0.8,0.5,1.9,0.9,3.4,0.9c2.1,0,3.7-1.1,3.7-4v-1.3h-0.1c-0.6,1.1-1.9,1.9-3.6,1.9
			c-2.8,0-4.9-2.4-4.9-5.6c0-3.9,2.5-6.1,5.2-6.1c2,0,3.1,1,3.6,2h0l0.1-1.7H363.8z M361.6,98.1c0-0.4,0-0.7-0.1-0.9
			c-0.4-1.2-1.4-2.2-2.9-2.2c-2,0-3.4,1.7-3.4,4.3c0,2.3,1.1,4.1,3.4,4.1c1.3,0,2.4-0.8,2.9-2.1c0.1-0.4,0.2-0.8,0.2-1.1V98.1z"/>
		<linearGradient id="SVGID_17_" gradientUnits="userSpaceOnUse" x1="268.2064" y1="88.5673" x2="329.6053" y2="94.9189">
			<stop  offset="6.337585e-03" style="stop-color:#000000"/>
			<stop  offset="0.9888" style="stop-color:#004811"/>
		</linearGradient>
		<path class="st16" d="M368.3,99.7c0.1,2.8,1.9,4,3.9,4c1.5,0,2.4-0.3,3.2-0.6l0.4,1.5c-0.7,0.3-2,0.7-3.8,0.7
			c-3.5,0-5.6-2.3-5.6-5.8s2-6.2,5.4-6.2c3.7,0,4.7,3.3,4.7,5.4c0,0.4-0.1,0.8-0.1,1H368.3z M374.4,98.2c0-1.3-0.5-3.4-2.9-3.4
			c-2.1,0-3,1.9-3.2,3.4H374.4z"/>
		<linearGradient id="SVGID_18_" gradientUnits="userSpaceOnUse" x1="268.3265" y1="87.4067" x2="329.7254" y2="93.7583">
			<stop  offset="6.337585e-03" style="stop-color:#000000"/>
			<stop  offset="0.9888" style="stop-color:#004811"/>
		</linearGradient>
		<path class="st17" d="M379,96.7c0-1.2,0-2.2-0.1-3.1h1.9l0.1,1.9h0c0.6-1.1,1.9-2.2,3.8-2.2c1.6,0,4,0.9,4,4.9v6.8h-2.1v-6.6
			c0-1.8-0.7-3.4-2.6-3.4c-1.4,0-2.4,1-2.8,2.1c-0.1,0.3-0.1,0.6-0.1,1v6.9H379V96.7z"/>
		<linearGradient id="SVGID_19_" gradientUnits="userSpaceOnUse" x1="268.4752" y1="85.9697" x2="329.874" y2="92.3214">
			<stop  offset="6.337585e-03" style="stop-color:#000000"/>
			<stop  offset="0.9888" style="stop-color:#004811"/>
		</linearGradient>
		<path class="st18" d="M400.3,104.6c-0.5,0.3-1.8,0.7-3.3,0.7c-3.5,0-5.7-2.3-5.7-5.8c0-3.5,2.4-6.1,6.2-6.1c1.2,0,2.3,0.3,2.9,0.6
			l-0.5,1.6c-0.5-0.3-1.3-0.5-2.4-0.5c-2.6,0-4,1.9-4,4.3c0,2.7,1.7,4.3,4,4.3c1.2,0,2-0.3,2.6-0.6L400.3,104.6z"/>
		<linearGradient id="SVGID_20_" gradientUnits="userSpaceOnUse" x1="268.3172" y1="87.4964" x2="329.7161" y2="93.848">
			<stop  offset="6.337585e-03" style="stop-color:#000000"/>
			<stop  offset="0.9888" style="stop-color:#004811"/>
		</linearGradient>
		<path class="st19" d="M404,93.6l2.5,6.8c0.3,0.8,0.5,1.7,0.7,2.3h0c0.2-0.7,0.5-1.6,0.7-2.4l2.3-6.7h2.2l-3.1,8.2
			c-1.5,3.9-2.5,5.9-3.9,7.2c-1,0.9-2,1.3-2.6,1.4l-0.5-1.8c0.5-0.2,1.2-0.5,1.8-1c0.6-0.5,1.3-1.3,1.8-2.3c0.1-0.2,0.2-0.4,0.2-0.5
			c0-0.1,0-0.3-0.1-0.5l-4.2-10.6H404z"/>
	</g>
</g>
</svg>
