<?xml version="1.0" encoding="utf-8"?>
<!-- Generator: Adobe Illustrator 26.0.2, SVG Export Plug-In . SVG Version: 6.00 Build 0)  -->
<svg version="1.1" id="Слой_1" xmlns="http://www.w3.org/2000/svg" xmlns:xlink="http://www.w3.org/1999/xlink" x="0px" y="0px"
	 viewBox="0 0 48 48" style="enable-background:new 0 0 48 48;" xml:space="preserve">
<style type="text/css">
	.st0{fill-rule:evenodd;clip-rule:evenodd;fill:#649B33;}
</style>
<path class="st0" d="M21.6,38.4h3.5V21.3l-3.5-1.2V38.4z"/>
<path class="st0" d="M31.8,13.7c0,2.3-0.8,3.5-2.3,3.5c-1.6,0-3.2-0.9-5.4-1.9c-2.9-1.4-4.3-1.8-6.2-1.8c-3,0-5.3,2.5-5.1,6.7h2.6
	c0-2.7,1-3.9,2.6-3.9c1.5,0,3.2,0.8,5.2,1.8c3,1.4,4.5,2,6.3,2c2.7,0,5.1-1.4,5-6.5H31.8z"/>
<path class="st0" d="M24,0C10.8,0,0,10.8,0,24s10.8,24,24,24s24-10.8,24-24S37.2,0,24,0z M24,46.4c-12.3,0-22.4-10-22.4-22.4
	S11.6,1.5,24,1.5S46.4,11.6,46.4,24S36.3,46.4,24,46.4z"/>
</svg>
