<?xml version="1.0" encoding="utf-8"?>
<!-- Generator: Adobe Illustrator 23.0.1, SVG Export Plug-In . SVG Version: 6.00 Build 0)  -->
<svg version="1.1" id="Layer_1" xmlns="http://www.w3.org/2000/svg" xmlns:xlink="http://www.w3.org/1999/xlink" x="0px" y="0px"
	 viewBox="0 0 512 512" style="enable-background:new 0 0 512 512;" xml:space="preserve">
<style type="text/css">
	.st0{fill:#FFFFFF;}
	.st1{fill:#659B35;}
</style>
<g>
	<g id="XMLID_1_">
		<g>
			<path class="st0" d="M257.3,25.7C381,26.9,485.4,129,483.9,259.7c-1.4,127.9-105,228.9-229.2,228.4
				c-127.1,0-229.3-103.7-228.5-233.4C26.9,126.4,131.6,24.6,257.3,25.7z M411.1,230.9c11-28.5,17.6-57.5,15.8-88.2
				c-0.7-11.9-3.1-23.4-10-33.5c-8.9-12.9-26.4-18-40.8-12.1c-14,5.7-21.8,21.2-18.8,37c1.9,9.9,6.5,18.5,12.1,26.6
				c20.5,29.7,25.2,61.6,13.7,95.9c-5.8,17.4-11.7,34.7-16.6,52.3c-2.6,9.4-5.8,18.7-8.8,28c-0.4,0-0.8,0-1.3,0.2
				c-0.8-1.9-1.7-3.8-2.4-5.8c-13-38.7-25.9-77.5-38.9-116.3c-7.5-22.4-14.9-44.9-22.5-67.2c-1.3-4.1-0.2-4.8,3.6-4.8
				c5.1-0.1,10.3-0.5,15.4-1.2c4.9-0.6,7.6-4.1,7.1-8.1c-0.5-4.2-3.5-6.4-8.6-6.3c-1.2,0-2.3,0.1-3.5,0.2
				c-8.1,0.5-16.3,1.2-24.4,1.5c-21.8,0.8-43.6,0-65.4-1.7c-5.6-0.4-9.1,2.2-9.5,6.7c-0.4,4.1,3.1,7.4,8.6,7.9c4.3,0.4,8.6,1,12.9,1
				c3.4,0,4.9,1.1,6.1,4.4c8.3,23.5,16.9,46.9,25.5,70.3c0.9,2.5,0.7,4.8-0.1,7.3c-11.9,35.4-23.7,70.9-35.6,106.4
				c-0.8,2.3-0.4,6.5-3.3,6.4c-2.3-0.1-2.7-4.2-3.5-6.6c-6.6-19.6-13.1-39.2-19.6-58.7c-14-41.6-27.9-83.2-42-124.8
				c-1.3-3.7-0.6-4.6,3.2-4.8c5.6-0.3,11.2-0.8,16.8-1.7c4.2-0.7,6.4-3.6,5.9-7.9s-3.4-6.2-7.7-6.1c-1.5,0-3,0.1-4.5,0.2
				c-18.4,1.6-36.9,1.9-55.4,1.9c-10.4-0.1-20.7,0.3-31,0.5c-6.1,0.1-10.2,3.7-10.4,9.1c-0.1,5.2,3.9,9.4,9.9,9.9
				c2.5,0.2,5,0.2,7.5,0.2c8.4,0,8.3,0,11.2,7.7c13.2,36.3,26.3,72.5,39.5,108.8c16.3,44.9,32.6,89.7,48.9,134.6
				c4.4,12.2,4.2,12.2,17.3,11.8c0.3,0,0.7,0,1,0c2.4,0.2,3.5-1,4.3-3.2c10.7-30.9,21.6-61.9,32.3-92.8c7.6-22,15.1-44,22.7-66
				c0.4-1.2,0.3-3,2-3.1c1.7-0.2,1.9,1.5,2.3,2.7c10.9,30,21.7,60.1,32.7,90c7.8,21.2,15,42.6,23.5,63.6c2.9,7.2,6.5,9.4,13.9,9
				c4.6-0.3,6.8-1.7,8.2-5.9c2.8-8.5,5.9-16.9,8.8-25.4c8.6-24.8,17.1-49.7,25.7-74.5C393.6,281.2,401.6,255.7,411.1,230.9z"/>
			<path class="st1" d="M257.9,6.2c136.2,1.5,246.9,113.4,245.6,253.3c-1.2,137.3-111.4,248.1-248.6,248.4
				c-137.8,0-249-112.6-248.4-252.7C7.1,117.2,118.6,4.7,257.9,6.2z M483.9,259.7C485.4,129,381,26.9,257.3,25.7
				c-125.7-1.1-230.4,100.7-231.1,229c-0.8,129.7,101.4,233.4,228.5,233.4C378.9,488.6,482.5,387.6,483.9,259.7z"/>
			<path class="st1" d="M426.9,142.7c1.8,30.7-4.8,59.7-15.8,88.2c-9.5,24.8-17.5,50.3-26.2,75.4c-8.6,24.8-17.1,49.7-25.7,74.5
				c-2.9,8.5-6,16.9-8.8,25.4c-1.4,4.2-3.6,5.6-8.2,5.9c-7.4,0.4-11-1.8-13.9-9c-8.5-21-15.7-42.4-23.5-63.6
				c-11-29.9-21.8-60-32.7-90c-0.4-1.2-0.6-2.9-2.3-2.7c-1.7,0.1-1.6,1.9-2,3.1c-7.6,22-15.1,44-22.7,66
				c-10.7,30.9-21.6,61.9-32.3,92.8c-0.8,2.2-1.9,3.4-4.3,3.2c-0.3,0-0.7,0-1,0c-13.1,0.4-12.9,0.4-17.3-11.8
				c-16.3-44.9-32.6-89.7-48.9-134.6c-13.2-36.3-26.3-72.5-39.5-108.8C98.9,149,99,149,90.6,149c-2.5,0-5,0-7.5-0.2
				c-6-0.5-10-4.7-9.9-9.9c0.2-5.4,4.3-9,10.4-9.1c10.3-0.2,20.6-0.6,31-0.5c18.5,0,37-0.3,55.4-1.9c1.5-0.1,3-0.2,4.5-0.2
				c4.3-0.1,7.2,1.8,7.7,6.1s-1.7,7.2-5.9,7.9c-5.6,0.9-11.2,1.4-16.8,1.7c-3.8,0.2-4.5,1.1-3.2,4.8c14.1,41.6,28,83.2,42,124.8
				c6.5,19.5,13,39.1,19.6,58.7c0.8,2.4,1.2,6.5,3.5,6.6c2.9,0.1,2.5-4.1,3.3-6.4c11.9-35.5,23.7-71,35.6-106.4
				c0.8-2.5,1-4.8,0.1-7.3c-8.6-23.4-17.2-46.8-25.5-70.3c-1.2-3.3-2.7-4.4-6.1-4.4c-4.3,0-8.6-0.6-12.9-1c-5.5-0.5-9-3.8-8.6-7.9
				c0.4-4.5,3.9-7.1,9.5-6.7c21.8,1.7,43.6,2.5,65.4,1.7c8.1-0.3,16.3-1,24.4-1.5c1.2-0.1,2.3-0.2,3.5-0.2c5.1-0.1,8.1,2.1,8.6,6.3
				c0.5,4-2.2,7.5-7.1,8.1c-5.1,0.7-10.3,1.1-15.4,1.2c-3.8,0-4.9,0.7-3.6,4.8c7.6,22.3,15,44.8,22.5,67.2
				c13,38.8,25.9,77.6,38.9,116.3c0.7,2,1.6,3.9,2.4,5.8c0.5-0.2,0.9-0.2,1.3-0.2c3-9.3,6.2-18.6,8.8-28
				c4.9-17.6,10.8-34.9,16.6-52.3c11.5-34.3,6.8-66.2-13.7-95.9c-5.6-8.1-10.2-16.7-12.1-26.6c-3-15.8,4.8-31.3,18.8-37
				c14.4-5.9,31.9-0.8,40.8,12.1C423.8,119.3,426.2,130.8,426.9,142.7z"/>
		</g>
		<g>
		</g>
	</g>
</g>
</svg>
