<?xml version="1.0" encoding="utf-8"?>
<!-- Generator: Adobe Illustrator 23.0.1, SVG Export Plug-In . SVG Version: 6.00 Build 0)  -->
<svg version="1.1" id="mdi-leaf" xmlns="http://www.w3.org/2000/svg" xmlns:xlink="http://www.w3.org/1999/xlink" x="0px" y="0px"
	 viewBox="0 0 58.4 32" style="enable-background:new 0 0 58.4 32;" xml:space="preserve">
<style type="text/css">
	.st0{fill:url(#SVGID_1_);}
	.st1{fill:url(#SVGID_2_);}
	.st2{fill:url(#SVGID_3_);}
	.st3{fill:url(#SVGID_4_);}
	.st4{fill:url(#SVGID_5_);}
	.st5{fill:url(#SVGID_6_);}
	.st6{fill:url(#SVGID_7_);}
	.st7{fill:url(#SVGID_8_);}
	.st8{fill:url(#SVGID_9_);}
	.st9{fill:url(#SVGID_10_);}
	.st10{fill:url(#SVGID_11_);}
	.st11{fill:url(#SVGID_12_);}
	.st12{fill:url(#SVGID_13_);}
	.st13{fill:#64BA19;}
	.st14{font-family:'SitkaBanner';}
	.st15{font-size:8px;}
	.st16{font-size:7px;}
</style>
<image style="overflow:visible;" width="15" height="14" xlink:href="B862072B.png"  transform="matrix(1 0 0 1 4.4468 11.0213)">
</image>
<linearGradient id="SVGID_1_" gradientUnits="userSpaceOnUse" x1="2.9707" y1="12.9907" x2="6.1637" y2="11.6925">
	<stop  offset="0.1474" style="stop-color:#5AC11E"/>
	<stop  offset="0.6383" style="stop-color:#0B451E"/>
</linearGradient>
<path class="st0" d="M4.4,16.7c0.4-0.4,0.9-1.1,1-1.7c0.2-1.3-0.2-2.4-0.4-3.1c0-0.1-0.1-0.3-0.3-0.7C3.8,9.5,3,8.4,3.2,8.6
	c0.4,0.8-0.9,2.5-1.6,3.9s0.3,3.1,0.9,3.6C3.1,16.7,4,16.8,4,16.8c-2.3-3.3-0.3-5.6-0.3-5.6c-0.2,0.6-0.4,1.6-0.3,2.9
	C3.6,15.4,4.1,16.2,4.4,16.7z"/>
<g id="KWOKKA_STUDIO">
	<g>
		<linearGradient id="SVGID_2_" gradientUnits="userSpaceOnUse" x1="21.6674" y1="13.314" x2="41.8376" y2="19.8246">
			<stop  offset="0.1541" style="stop-color:#1B6B19"/>
			<stop  offset="0.5218" style="stop-color:#1E7019"/>
			<stop  offset="0.7561" style="stop-color:#5AC11E"/>
		</linearGradient>
		<path class="st1" d="M21,17.4l0.5-0.1c0,0,0.1,0,0.1-0.1c0,0,0-0.1,0-0.1v-4c0-0.1,0-0.1,0-0.1c0,0-0.1-0.1-0.1-0.1L21,12.8v-0.2
			h1.9v0.2l-0.4,0.1c0,0-0.1,0-0.1,0.1s0,0.1,0,0.1v2.1l2.1-2.3l-0.5-0.1v-0.2h1.4v0.2l-0.4,0.1c-0.1,0-0.1,0-0.2,0.1
			c-0.1,0-0.1,0.1-0.2,0.2l-1.4,1.5l1.7,2.3c0,0,0,0.1,0.1,0.1c0,0,0.1,0.1,0.1,0.1c0,0,0.1,0,0.1,0.1c0,0,0.1,0,0.1,0l0.3,0.1v0.2
			h-1.8v-0.2l0.5-0.1l-1.6-2.1l-0.4,0.4v1.5c0,0.1,0,0.1,0,0.1c0,0,0.1,0.1,0.1,0.1l0.4,0.1v0.2H21V17.4z"/>
		<linearGradient id="SVGID_3_" gradientUnits="userSpaceOnUse" x1="21.6674" y1="13.314" x2="41.8376" y2="19.8246">
			<stop  offset="0.1541" style="stop-color:#1B6B19"/>
			<stop  offset="0.5218" style="stop-color:#1E7019"/>
			<stop  offset="0.7561" style="stop-color:#5AC11E"/>
		</linearGradient>
		<path class="st2" d="M25.7,13.1c0,0,0-0.1-0.1-0.1s-0.1-0.1-0.1-0.1l-0.3-0.1v-0.2h1.7v0.2L26.3,13l0.9,3l0.2,0.7l1-3.1l0.4-0.9
			H29l1,3.3l0.2,0.7l1.2-3.7l-0.6-0.1v-0.2h1.4v0.2l-0.3,0.1c0,0-0.1,0-0.1,0.1c0,0-0.1,0.1-0.1,0.1l-1.2,3.6l-0.4,0.9h-0.2
			l-1.1-3.5l-0.1-0.5l-1,3.1l-0.4,0.9h-0.2L25.7,13.1z"/>
		<linearGradient id="SVGID_4_" gradientUnits="userSpaceOnUse" x1="21.6674" y1="13.314" x2="41.8376" y2="19.8246">
			<stop  offset="0.1541" style="stop-color:#1B6B19"/>
			<stop  offset="0.5218" style="stop-color:#1E7019"/>
			<stop  offset="0.7561" style="stop-color:#5AC11E"/>
		</linearGradient>
		<path class="st3" d="M34.5,17.7c-0.4,0-0.7-0.1-1-0.2c-0.3-0.1-0.5-0.3-0.7-0.5c-0.2-0.2-0.3-0.5-0.4-0.8c-0.1-0.3-0.1-0.7-0.1-1
			c0-0.4,0.1-0.7,0.2-1c0.1-0.3,0.3-0.6,0.4-0.8c0.2-0.2,0.4-0.4,0.7-0.5c0.3-0.1,0.6-0.2,1-0.2c0.4,0,0.7,0.1,1,0.2
			s0.5,0.3,0.7,0.6s0.3,0.5,0.4,0.8c0.1,0.3,0.1,0.6,0.1,1c0,0.2,0,0.4-0.1,0.6c0,0.2-0.1,0.4-0.2,0.6c-0.1,0.2-0.2,0.4-0.3,0.5
			c-0.1,0.2-0.3,0.3-0.4,0.4c-0.2,0.1-0.4,0.2-0.6,0.3C35,17.6,34.7,17.7,34.5,17.7z M34.5,17.4c0.2,0,0.5-0.1,0.7-0.2
			c0.2-0.1,0.3-0.3,0.5-0.5s0.2-0.4,0.3-0.7c0.1-0.3,0.1-0.6,0.1-0.9c0-0.4,0-0.7-0.1-1c-0.1-0.3-0.2-0.6-0.3-0.8
			c-0.1-0.2-0.3-0.4-0.5-0.5c-0.2-0.1-0.4-0.2-0.7-0.2c-0.3,0-0.5,0.1-0.7,0.2c-0.2,0.1-0.3,0.3-0.5,0.5c-0.1,0.2-0.2,0.4-0.3,0.7
			c-0.1,0.3-0.1,0.5-0.1,0.8c0,0.3,0,0.7,0.1,1c0.1,0.3,0.2,0.6,0.3,0.8s0.3,0.4,0.5,0.5C34,17.4,34.3,17.4,34.5,17.4z"/>
		<linearGradient id="SVGID_5_" gradientUnits="userSpaceOnUse" x1="21.6674" y1="13.314" x2="41.8376" y2="19.8246">
			<stop  offset="0.1541" style="stop-color:#1B6B19"/>
			<stop  offset="0.5218" style="stop-color:#1E7019"/>
			<stop  offset="0.7561" style="stop-color:#5AC11E"/>
		</linearGradient>
		<path class="st4" d="M37.1,17.4l0.5-0.1c0,0,0.1,0,0.1-0.1c0,0,0-0.1,0-0.1v-4c0-0.1,0-0.1,0-0.1c0,0-0.1-0.1-0.1-0.1l-0.5-0.1
			v-0.2H39v0.2l-0.4,0.1c0,0-0.1,0-0.1,0.1s0,0.1,0,0.1v2.1l2.1-2.3l-0.5-0.1v-0.2h1.4v0.2L41,12.9c-0.1,0-0.1,0-0.2,0.1
			c-0.1,0-0.1,0.1-0.2,0.2l-1.4,1.5L41,17c0,0,0,0.1,0.1,0.1c0,0,0.1,0.1,0.1,0.1c0,0,0.1,0,0.1,0.1c0,0,0.1,0,0.1,0l0.3,0.1v0.2
			h-1.8v-0.2l0.5-0.1l-1.6-2.1l-0.4,0.4v1.5c0,0.1,0,0.1,0,0.1c0,0,0.1,0.1,0.1,0.1l0.4,0.1v0.2h-1.9V17.4z"/>
		<linearGradient id="SVGID_6_" gradientUnits="userSpaceOnUse" x1="21.6674" y1="13.314" x2="41.8376" y2="19.8246">
			<stop  offset="0.1541" style="stop-color:#1B6B19"/>
			<stop  offset="0.5218" style="stop-color:#1E7019"/>
			<stop  offset="0.7561" style="stop-color:#5AC11E"/>
		</linearGradient>
		<path class="st5" d="M41.7,17.4l0.5-0.1c0,0,0.1,0,0.1-0.1c0,0,0-0.1,0-0.1v-4c0-0.1,0-0.1,0-0.1c0,0-0.1-0.1-0.1-0.1l-0.5-0.1
			v-0.2h1.9v0.2l-0.4,0.1c0,0-0.1,0-0.1,0.1s0,0.1,0,0.1v2.1l2.1-2.3l-0.5-0.1v-0.2H46v0.2l-0.4,0.1c-0.1,0-0.1,0-0.2,0.1
			c-0.1,0-0.1,0.1-0.2,0.2l-1.4,1.5l1.7,2.3c0,0,0,0.1,0.1,0.1c0,0,0.1,0.1,0.1,0.1c0,0,0.1,0,0.1,0.1c0,0,0.1,0,0.1,0l0.3,0.1v0.2
			h-1.8v-0.2l0.5-0.1l-1.6-2.1L43,15.6v1.5c0,0.1,0,0.1,0,0.1c0,0,0.1,0.1,0.1,0.1l0.4,0.1v0.2h-1.9V17.4z"/>
		<linearGradient id="SVGID_7_" gradientUnits="userSpaceOnUse" x1="21.6674" y1="13.314" x2="41.8376" y2="19.8246">
			<stop  offset="0.1541" style="stop-color:#1B6B19"/>
			<stop  offset="0.5218" style="stop-color:#1E7019"/>
			<stop  offset="0.7561" style="stop-color:#5AC11E"/>
		</linearGradient>
		<path class="st6" d="M45.9,17.4l0.3-0.1c0,0,0.1,0,0.1-0.1c0,0,0.1-0.1,0.1-0.1l1.4-3.7l0.4-0.8h0.1l1.7,4.5c0,0,0,0.1,0.1,0.1
			s0.1,0.1,0.1,0.1l0.3,0.1v0.2h-1.7v-0.2l0.6-0.1l-0.6-1.5h-1.7l-0.6,1.5l0.6,0.1v0.2h-1.4V17.4z M48.8,15.5L48.3,14l-0.2-0.5h0
			l-0.7,2H48.8z"/>
		<linearGradient id="SVGID_8_" gradientUnits="userSpaceOnUse" x1="21.6674" y1="13.314" x2="41.8376" y2="19.8246">
			<stop  offset="0.1541" style="stop-color:#1B6B19"/>
			<stop  offset="0.5218" style="stop-color:#1E7019"/>
			<stop  offset="0.7561" style="stop-color:#5AC11E"/>
		</linearGradient>
		<path class="st7" d="M21,22.3h0.2l0.2,0.6c0,0,0,0.1,0.1,0.1c0,0,0.1,0.1,0.1,0.1c0.1,0,0.2,0.1,0.2,0.1c0.1,0,0.2,0.1,0.3,0.1
			c0.1,0,0.2,0,0.2,0.1c0.1,0,0.1,0,0.2,0c0.1,0,0.2,0,0.4-0.1c0.1,0,0.2-0.1,0.3-0.2c0.1-0.1,0.1-0.2,0.2-0.3s0.1-0.2,0.1-0.4
			c0-0.2-0.1-0.3-0.2-0.5c-0.1-0.1-0.2-0.2-0.4-0.3c-0.1,0-0.2-0.1-0.2-0.1s-0.2,0-0.2-0.1c-0.1,0-0.2,0-0.2-0.1
			c-0.1,0-0.2,0-0.2-0.1c-0.2-0.1-0.4-0.2-0.5-0.4c-0.1-0.2-0.2-0.4-0.2-0.6c0-0.2,0-0.3,0.1-0.5c0.1-0.2,0.2-0.3,0.3-0.4
			c0.1-0.1,0.3-0.2,0.4-0.3s0.3-0.1,0.5-0.1c0.1,0,0.2,0,0.3,0c0.1,0,0.2,0,0.3,0s0.2,0,0.3,0.1s0.2,0.1,0.3,0.1v1h-0.2l-0.2-0.6
			c0,0,0-0.1-0.1-0.1c0,0-0.1,0-0.1-0.1c0,0-0.1-0.1-0.2-0.1s-0.1,0-0.2-0.1c-0.1,0-0.1,0-0.2,0c-0.1,0-0.1,0-0.2,0
			c-0.1,0-0.2,0-0.3,0.1c-0.1,0-0.2,0.1-0.2,0.1s-0.1,0.1-0.2,0.2s-0.1,0.2-0.1,0.3c0,0.1,0,0.2,0,0.3c0,0.1,0,0.2,0.1,0.2
			c0,0.1,0.1,0.1,0.2,0.2c0.1,0.1,0.2,0.1,0.3,0.2c0.1,0,0.1,0.1,0.2,0.1c0.1,0,0.1,0,0.2,0.1c0.1,0,0.2,0,0.2,0.1
			c0.1,0,0.2,0.1,0.2,0.1c0.1,0,0.2,0.1,0.3,0.1s0.2,0.1,0.2,0.2c0.1,0.1,0.1,0.2,0.2,0.3c0,0.1,0.1,0.2,0.1,0.4
			c0,0.2,0,0.3-0.1,0.5c-0.1,0.2-0.2,0.3-0.3,0.4c-0.1,0.1-0.3,0.2-0.5,0.3s-0.4,0.1-0.7,0.1c-0.1,0-0.2,0-0.3,0s-0.2,0-0.3-0.1
			s-0.2-0.1-0.3-0.1c-0.1,0-0.2-0.1-0.3-0.1L21,22.3z"/>
		<linearGradient id="SVGID_9_" gradientUnits="userSpaceOnUse" x1="21.6674" y1="13.314" x2="41.8376" y2="19.8246">
			<stop  offset="0.1541" style="stop-color:#1B6B19"/>
			<stop  offset="0.5218" style="stop-color:#1E7019"/>
			<stop  offset="0.7561" style="stop-color:#5AC11E"/>
		</linearGradient>
		<path class="st8" d="M25.2,23.4l0.5-0.1c0,0,0.1,0,0.1-0.1s0-0.1,0-0.1v-3.6h-1c0,0-0.1,0-0.1,0c0,0,0,0,0,0.1l-0.2,0.7h-0.2v-1
			h3.6v1h-0.2l-0.2-0.7c0,0,0-0.1,0-0.1c0,0,0,0-0.1,0h-1v3.6c0,0,0,0.1,0,0.1c0,0,0.1,0.1,0.1,0.1l0.5,0.1v0.1h-1.8V23.4z"/>
		<linearGradient id="SVGID_10_" gradientUnits="userSpaceOnUse" x1="21.6674" y1="13.314" x2="41.8376" y2="19.8246">
			<stop  offset="0.1541" style="stop-color:#1B6B19"/>
			<stop  offset="0.5218" style="stop-color:#1E7019"/>
			<stop  offset="0.7561" style="stop-color:#5AC11E"/>
		</linearGradient>
		<path class="st9" d="M28.6,19.7c0,0,0-0.1,0-0.1c0,0-0.1-0.1-0.1-0.1L28,19.4v-0.1h1.6v0.1l-0.4,0.1c0,0-0.1,0-0.1,0.1
			c0,0,0,0.1,0,0.1v2.5c0,0.1,0,0.2,0,0.2c0,0.1,0,0.2,0.1,0.2s0.1,0.2,0.1,0.2c0.1,0.1,0.1,0.1,0.2,0.2c0.1,0.1,0.2,0.1,0.3,0.1
			s0.3,0.1,0.4,0.1c0.2,0,0.3,0,0.4-0.1c0.1,0,0.2-0.1,0.3-0.1c0.1-0.1,0.2-0.1,0.2-0.2c0.1-0.1,0.1-0.2,0.1-0.2s0.1-0.2,0.1-0.2
			s0-0.2,0-0.2v-2.5c0,0,0-0.1,0-0.1c0,0-0.1-0.1-0.1-0.1l-0.4-0.1v-0.1h1.4v0.1l-0.4,0.1c0,0-0.1,0-0.1,0.1c0,0,0,0.1,0,0.1v2.6
			c0,0.2,0,0.3-0.1,0.5s-0.1,0.3-0.2,0.4s-0.2,0.2-0.3,0.3c-0.1,0.1-0.2,0.1-0.3,0.2c-0.1,0-0.2,0.1-0.3,0.1c-0.1,0-0.2,0-0.3,0
			c-0.3,0-0.5,0-0.7-0.1c-0.2-0.1-0.4-0.2-0.5-0.3s-0.2-0.3-0.3-0.4c-0.1-0.2-0.1-0.3-0.1-0.5V19.7z"/>
		<linearGradient id="SVGID_11_" gradientUnits="userSpaceOnUse" x1="21.6674" y1="13.314" x2="41.8376" y2="19.8246">
			<stop  offset="0.1541" style="stop-color:#1B6B19"/>
			<stop  offset="0.5218" style="stop-color:#1E7019"/>
			<stop  offset="0.7561" style="stop-color:#5AC11E"/>
		</linearGradient>
		<path class="st10" d="M32.4,23.4l0.4-0.1c0,0,0.1,0,0.1-0.1s0-0.1,0-0.1v-3.5c0,0,0-0.1,0-0.1s-0.1-0.1-0.1-0.1l-0.4-0.1v-0.1h1.8
			c0.1,0,0.3,0,0.4,0s0.3,0.1,0.5,0.1c0.2,0.1,0.3,0.1,0.5,0.3s0.3,0.2,0.4,0.4c0.1,0.2,0.2,0.3,0.3,0.6c0.1,0.2,0.1,0.5,0.1,0.8
			c0,0.4-0.1,0.7-0.2,0.9c-0.1,0.3-0.3,0.5-0.5,0.7c-0.2,0.2-0.4,0.3-0.7,0.4s-0.5,0.1-0.8,0.1h-1.8V23.4z M34.3,23.3
			c0.2,0,0.5,0,0.6-0.1s0.3-0.2,0.5-0.4c0.1-0.2,0.2-0.3,0.3-0.6c0.1-0.2,0.1-0.5,0.1-0.8c0-0.3,0-0.6-0.1-0.8
			c-0.1-0.2-0.2-0.5-0.3-0.6c-0.1-0.2-0.3-0.3-0.5-0.4s-0.4-0.1-0.7-0.1h-0.5v3.8H34.3z"/>
		<linearGradient id="SVGID_12_" gradientUnits="userSpaceOnUse" x1="21.6674" y1="13.314" x2="41.8376" y2="19.8246">
			<stop  offset="0.1541" style="stop-color:#1B6B19"/>
			<stop  offset="0.5218" style="stop-color:#1E7019"/>
			<stop  offset="0.7561" style="stop-color:#5AC11E"/>
		</linearGradient>
		<path class="st11" d="M36.7,23.4l0.4-0.1c0,0,0.1,0,0.1-0.1s0-0.1,0-0.1v-3.5c0,0,0-0.1,0-0.1s-0.1-0.1-0.1-0.1l-0.4-0.1v-0.1h1.6
			v0.1l-0.4,0.1c0,0-0.1,0-0.1,0.1c0,0,0,0.1,0,0.1v3.5c0,0,0,0.1,0,0.1s0.1,0.1,0.1,0.1l0.4,0.1v0.1h-1.6V23.4z"/>
		<linearGradient id="SVGID_13_" gradientUnits="userSpaceOnUse" x1="21.6674" y1="13.314" x2="41.8376" y2="19.8246">
			<stop  offset="0.1541" style="stop-color:#1B6B19"/>
			<stop  offset="0.5218" style="stop-color:#1E7019"/>
			<stop  offset="0.7561" style="stop-color:#5AC11E"/>
		</linearGradient>
		<path class="st12" d="M40.7,23.7c-0.3,0-0.6-0.1-0.8-0.2c-0.2-0.1-0.5-0.3-0.6-0.5s-0.3-0.4-0.4-0.7c-0.1-0.3-0.1-0.6-0.1-0.9
			c0-0.3,0-0.6,0.1-0.9c0.1-0.3,0.2-0.5,0.4-0.7s0.4-0.4,0.6-0.5c0.2-0.1,0.5-0.2,0.8-0.2c0.3,0,0.6,0.1,0.9,0.2
			c0.2,0.1,0.5,0.3,0.6,0.5c0.2,0.2,0.3,0.4,0.4,0.7c0.1,0.3,0.1,0.6,0.1,0.9c0,0.2,0,0.4,0,0.5c0,0.2-0.1,0.4-0.2,0.5
			c-0.1,0.2-0.2,0.3-0.3,0.5c-0.1,0.1-0.2,0.3-0.4,0.4c-0.1,0.1-0.3,0.2-0.5,0.3C41.1,23.6,40.9,23.7,40.7,23.7z M40.7,23.4
			c0.2,0,0.4,0,0.6-0.1c0.2-0.1,0.3-0.2,0.4-0.4c0.1-0.2,0.2-0.4,0.2-0.6C42,22,42,21.8,42,21.5c0-0.3,0-0.6-0.1-0.9
			s-0.1-0.5-0.3-0.7s-0.3-0.3-0.4-0.4c-0.2-0.1-0.4-0.2-0.6-0.2c-0.2,0-0.4,0.1-0.6,0.2c-0.2,0.1-0.3,0.2-0.4,0.4
			c-0.1,0.2-0.2,0.4-0.2,0.6s-0.1,0.5-0.1,0.7c0,0.3,0,0.6,0.1,0.8c0.1,0.3,0.1,0.5,0.3,0.7c0.1,0.2,0.3,0.3,0.4,0.4
			S40.5,23.4,40.7,23.4z"/>
	</g>
	<text transform="matrix(1 0 0 1 20.8084 17.5676)"><tspan x="0" y="0" class="st13 st14 st15">KWOKKA</tspan><tspan x="0" y="6" class="st13 st14 st16">STUDIO</tspan></text>
</g>
</svg>
