<?xml version="1.0" encoding="utf-8"?>
<!-- Generator: Adobe Illustrator 26.0.2, SVG Export Plug-In . SVG Version: 6.00 Build 0)  -->
<svg version="1.1" id="Layer_1" xmlns="http://www.w3.org/2000/svg" xmlns:xlink="http://www.w3.org/1999/xlink" x="0px" y="0px"
	 viewBox="0 0 32 32" style="enable-background:new 0 0 32 32;" xml:space="preserve">
<style type="text/css">
	.st0{fill:#649B33;}
	.st1{fill:#649B33;stroke:#FFFFFF;stroke-width:0.25;stroke-miterlimit:10;}
</style>
<path class="st0" d="M29,24V6.4C29,5.6,28.3,5,27.5,5c0,0,0,0,0,0h-23C3.7,5,3,5.6,3,6.4c0,0,0,0,0,0V24H0v0.4C0,25.8,1.1,27,2.5,27
	h27c1.4,0,2.5-1.2,2.5-2.6V24H29z M4,6.4C4,6.2,4.2,6,4.5,6c0,0,0,0,0,0h23C27.8,6,28,6.2,28,6.4c0,0,0,0,0,0V24H4V6.4z M2.5,26
	c-0.6,0-1.2-0.4-1.4-1H14v1H2.5z M29.5,26H18v-1h12.9C30.7,25.6,30.1,26,29.5,26z"/>
<path class="st1" d="M5,23h22V7H5V23z M6,8h20v14H6V8z"/>
<g>
	<path class="st0" d="M18.6,15.2c0.3-0.3,0.3-0.7,0-1l-5.7-5.7c-0.3-0.3-0.7-0.3-1,0l-0.7,0.7L11.1,9c-0.2-0.2-0.4-0.2-0.6,0
		c-0.2,0.2-0.2,0.4,0,0.6l0.1,0.1L10,10.3c-0.3,0.3-0.3,0.7,0,1l5.7,5.7c0.1,0.1,0.3,0.2,0.5,0.2c0.2,0,0.4-0.1,0.5-0.2l0.6-0.6
		l0.2,0.2l-1.7,1.7l-3.4-3.4l-1.3,1.3l-0.3-0.3c-0.2-0.2-0.5-0.3-0.8-0.3c-0.3,0-0.6,0.1-0.8,0.3C9.1,16.1,9,16.4,9,16.7l-2.4,2.4
		c-0.2,0.2-0.2,0.4-0.2,0.6c0,0.2,0.1,0.4,0.2,0.6l1.2,1.2c0.2,0.2,0.4,0.2,0.6,0.2c0.2,0,0.4-0.1,0.6-0.2l2.4-2.4
		c0.1,0,0.1,0,0.2,0c0.3,0,0.6-0.1,0.8-0.3c0.4-0.4,0.4-1.1,0-1.5l-0.6-0.6l0.7-0.7l3.4,3.4l2.8-2.8l-0.7-0.7L18.6,15.2z M11.9,18.4
		c-0.1,0.1-0.2,0.2-0.4,0.2c-0.1,0-0.1,0-0.2,0l-0.2,0l-2.6,2.6c-0.1,0.1-0.3,0.1-0.4,0L7,19.9C7,19.8,7,19.7,7,19.7
		c0-0.1,0-0.1,0.1-0.2l2.6-2.6l0-0.2c-0.1-0.2,0-0.4,0.1-0.6c0.1-0.1,0.2-0.2,0.4-0.2s0.3,0.1,0.4,0.2l1.5,1.5
		C12.1,17.9,12.1,18.2,11.9,18.4z M16.4,16.7c-0.1,0.1-0.2,0.1-0.2,0l-5.7-5.7c-0.1-0.1-0.1-0.2,0-0.2l1.8-1.8c0,0,0.1,0,0.1,0
		c0,0,0.1,0,0.1,0l0.2,0.2c-0.2,0.6-0.3,1.4,0,1.7c0.6,0.5,1.6,0.5,1.6,0.5s0.2,1,0.6,1.5c0.4,0.5,1.6,0.5,1.6,0.5s-0.9,1.2-0.6,1.5
		c0.3,0.4,1.6-0.3,1.6-0.3l0.4-0.2l0.3,0.3c0.1,0.1,0.1,0.2,0,0.2L16.4,16.7z"/>
</g>
</svg>
